<?xml version="1.0" encoding="UTF-8" standalone="no"?>
<!-- Created with Inkscape (http://www.inkscape.org/) -->

<svg
   version="1.1"
   id="svg36044"
   width="100"
   height="100.38425"
   viewBox="0 0 99.999999 100.38425"
   sodipodi:docname="accueil.svg"
   inkscape:version="1.2.1 (9c6d41e410, 2022-07-14)"
   xmlns:inkscape="http://www.inkscape.org/namespaces/inkscape"
   xmlns:sodipodi="http://sodipodi.sourceforge.net/DTD/sodipodi-0.dtd"
   xmlns="http://www.w3.org/2000/svg"
   xmlns:svg="http://www.w3.org/2000/svg">
  <defs
     id="defs36048" />
  <sodipodi:namedview
     id="namedview36046"
     pagecolor="#ffffff"
     bordercolor="#000000"
     borderopacity="0.25"
     inkscape:showpageshadow="2"
     inkscape:pageopacity="0.0"
     inkscape:pagecheckerboard="0"
     inkscape:deskcolor="#d1d1d1"
     showgrid="false"
     inkscape:zoom="0.48361816"
     inkscape:cx="594.47726"
     inkscape:cy="529.34323"
     inkscape:window-width="1920"
     inkscape:window-height="1017"
     inkscape:window-x="-8"
     inkscape:window-y="-8"
     inkscape:window-maximized="1"
     inkscape:current-layer="g36050" />
  <g
     inkscape:groupmode="layer"
     inkscape:label="Image"
     id="g36050"
     transform="translate(-6.505955,-5.2494377)">
    <path
       style="opacity:0.914;fill:#008080;stroke-width:0.361102;stroke-linecap:round;stroke-linejoin:round"
       d="m 27.78735,105.51989 c -0.06289,-0.0612 -0.520588,-0.13526 -1.017104,-0.16453 -0.91168,-0.0538 -1.951574,-0.25161 -2.290933,-0.43591 -0.101476,-0.0551 -0.35814,-0.13834 -0.570366,-0.18495 -0.212224,-0.0466 -0.416762,-0.13475 -0.45453,-0.19586 -0.03777,-0.0611 -0.173802,-0.1111 -0.302299,-0.1111 -0.128497,0 -0.233631,-0.0531 -0.233631,-0.11808 0,-0.0649 -0.135413,-0.15206 -0.300919,-0.1936 -0.165504,-0.0415 -0.300917,-0.12381 -0.300917,-0.18284 0,-0.059 -0.08125,-0.10732 -0.180552,-0.10732 -0.0993,0 -0.180551,-0.0505 -0.180551,-0.11226 0,-0.0617 -0.11107,-0.1475 -0.246824,-0.19059 -0.332929,-0.10566 -2.470006,-2.2337 -2.574812,-2.56392 -0.04587,-0.14453 -0.13392,-0.26278 -0.195662,-0.26278 -0.06174,0 -0.112255,-0.0812 -0.112255,-0.18055 0,-0.0993 -0.05313,-0.18055 -0.118074,-0.18055 -0.06494,0 -0.15206,-0.13541 -0.1936,-0.30092 -0.04154,-0.165506 -0.123819,-0.300922 -0.182845,-0.300922 -0.05902,0 -0.107318,-0.108331 -0.107318,-0.24073 0,-0.13241 -0.05353,-0.240734 -0.118945,-0.240734 -0.06542,0 -0.15359,-0.216665 -0.195935,-0.48147 -0.04235,-0.264815 -0.124233,-0.481471 -0.181975,-0.481471 -0.05774,0 -0.104982,-0.130904 -0.104982,-0.290894 0,-0.15998 -0.05589,-0.309511 -0.124193,-0.332286 -0.06831,-0.02275 -0.157731,-0.516624 -0.198722,-1.09746 -0.04099,-0.580839 -0.120516,-1.084491 -0.176725,-1.119229 -0.05621,-0.03475 -0.102199,-7.020216 -0.102199,-15.52327 V 64.465548 H 15.94428 c -0.591911,0 -1.104672,-0.04605 -1.139468,-0.102365 -0.0348,-0.0563 -0.482394,-0.137789 -0.994662,-0.181094 -0.512269,-0.0433 -0.985318,-0.132656 -1.051219,-0.198556 -0.0659,-0.0659 -0.189865,-0.119825 -0.275474,-0.119825 -0.232664,0 -1.120243,-0.403959 -1.120243,-0.509859 0,-0.05059 -0.07312,-0.09197 -0.162491,-0.09197 -0.08937,0 -0.386811,-0.162495 -0.660979,-0.3611 -0.274168,-0.198605 -0.530407,-0.3611 -0.56942,-0.3611 -0.067127,0 -1.625078,-1.58419 -2.0130797,-2.046985 C 7.8575363,60.373765 7.7398767,60.162779 7.6957791,60.023839 7.6516811,59.8849 7.5650861,59.771224 7.5033452,59.771224 c -0.061741,0 -0.1122561,-0.08125 -0.1122561,-0.180549 0,-0.0993 -0.049404,-0.180556 -0.1097875,-0.180556 -0.060383,0 -0.1463921,-0.216659 -0.1911312,-0.48147 -0.044739,-0.264805 -0.1216912,-0.48147 -0.1710048,-0.48147 -0.2129488,0 -0.4098099,-1.49117 -0.4131563,-3.129549 -0.00331,-1.621701 0.1448801,-2.740011 0.4067372,-3.069371 0.052634,-0.0662 0.1336557,-0.323487 0.1800485,-0.571745 0.046393,-0.248257 0.132488,-0.451378 0.1913225,-0.451378 0.058834,0 0.1069716,-0.08125 0.1069716,-0.180551 0,-0.0993 0.050515,-0.180551 0.1122561,-0.180551 0.061741,0 0.1483361,-0.113679 0.1924339,-0.252618 0.044098,-0.13894 0.1696197,-0.359609 0.2789378,-0.490374 C 8.2938774,49.739263 51.004047,7.0104494 51.285196,6.7916565 c 0.140252,-0.1091463 0.369125,-0.2346684 0.508606,-0.2789379 0.139482,-0.04427 0.253603,-0.1310054 0.253603,-0.1927463 0,-0.061741 0.08125,-0.1122562 0.180551,-0.1122562 0.0993,0 0.180551,-0.049404 0.180551,-0.1097873 0,-0.060383 0.216663,-0.1463921 0.48147,-0.1911312 0.264809,-0.044739 0.48147,-0.1216914 0.48147,-0.171005 0,-0.3153255 4.68371,-0.6701505 4.976829,-0.3770309 0.06971,0.069712 0.264871,0.1270836 0.433687,0.1274914 0.168814,4.072e-4 0.458179,0.079631 0.643034,0.1760508 0.18485,0.09642 0.523385,0.2104452 0.752295,0.2533891 0.228911,0.042944 0.4162,0.1262171 0.4162,0.1850515 0,0.058834 0.08125,0.1069716 0.180549,0.1069716 0.0993,0 0.180556,0.050515 0.180556,0.1122562 0,0.061741 0.121871,0.1507594 0.270825,0.1978191 0.148955,0.04706 0.341605,0.1861229 0.42811,0.3090297 0.08651,0.1229069 0.215586,0.2234671 0.28684,0.2234671 0.169606,0 42.827968,42.6580528 42.827968,42.8276568 0,0.07143 0.10056,0.200643 0.22347,0.28715 0.12291,0.08651 0.26197,0.279156 0.30903,0.42811 0.0471,0.148954 0.13607,0.270828 0.19782,0.270828 0.0617,0 0.11225,0.08125 0.11225,0.180551 0,0.0993 0.0481,0.180551 0.10697,0.180551 0.0588,0 0.14493,0.203121 0.19133,0.451378 0.0464,0.248258 0.12741,0.505541 0.18004,0.571745 0.55561,0.698825 0.55561,5.439916 0,6.138741 -0.0526,0.0662 -0.13365,0.323485 -0.18004,0.571745 -0.0464,0.248254 -0.13249,0.451374 -0.19133,0.451374 -0.0588,0 -0.10697,0.08125 -0.10697,0.180556 0,0.0993 -0.0505,0.180549 -0.11225,0.180549 -0.0618,0 -0.15076,0.121871 -0.19782,0.270825 -0.0471,0.148954 -0.18612,0.341605 -0.30903,0.42811 -0.12291,0.08651 -0.22347,0.21765 -0.22347,0.291429 0,0.131366 -1.61351,1.778087 -1.74223,1.778087 -0.0359,0 -0.28969,0.162495 -0.56385,0.3611 -0.27417,0.198609 -0.57161,0.361104 -0.66098,0.361104 -0.0894,0 -0.16249,0.0414 -0.16249,0.09197 0,0.111765 -0.89347,0.509859 -1.14432,0.509859 -0.0989,0 -0.17973,0.0476 -0.17973,0.105725 0,0.131641 -1.739087,0.377111 -3.219824,0.454466 l -1.1134,0.05817 v 15.39166 c 0,8.46542 -0.04605,15.42011 -0.102283,15.45488 -0.05626,0.03475 -0.134812,0.565181 -0.174555,1.178695 -0.03975,0.613506 -0.129136,1.134421 -0.198636,1.157589 -0.0695,0.02315 -0.12636,0.173021 -0.12636,0.333006 0,0.15999 -0.0494,0.29089 -0.109791,0.29089 -0.06037,0 -0.14639,0.216659 -0.191128,0.48147 -0.04475,0.264809 -0.130751,0.481475 -0.191135,0.481475 -0.06038,0 -0.10978,0.108324 -0.10978,0.240736 0,0.132399 -0.0483,0.24073 -0.107321,0.24073 -0.05903,0 -0.14131,0.135414 -0.182844,0.300921 -0.04155,0.16551 -0.128661,0.30092 -0.1936,0.30092 -0.06494,0 -0.118082,0.0812 -0.118082,0.18055 0,0.0993 -0.05051,0.18055 -0.112254,0.18055 -0.06174,0 -0.148769,0.11505 -0.193401,0.25567 -0.103103,0.32485 -2.252283,2.46795 -2.578924,2.57162 -0.134735,0.0428 -0.24497,0.12826 -0.24497,0.19 0,0.0617 -0.08125,0.11226 -0.180549,0.11226 -0.0993,0 -0.181072,0.0406 -0.181691,0.0903 -4.11e-4,0.0496 -0.244375,0.1972 -0.541661,0.32789 -0.29728,0.13069 -0.540514,0.27489 -0.540514,0.32043 0,0.0455 -0.216655,0.11942 -0.48147,0.16416 -0.264805,0.0447 -0.481464,0.12044 -0.481464,0.16822 0,0.12786 -1.369735,0.38572 -2.407351,0.45319 -0.496504,0.0323 -0.95421,0.1088 -1.017095,0.17002 -0.161831,0.15755 -16.075081,0.14859 -16.075081,-0.009 0,-0.0662 -0.185184,-0.12037 -0.411528,-0.12037 -0.402365,0 -1.15097,-0.33229 -1.152486,-0.51156 -4.11e-4,-0.0496 -0.08201,-0.0903 -0.18131,-0.0903 -0.0993,0 -0.180551,-0.0463 -0.180551,-0.10279 0,-0.0565 -0.148954,-0.25965 -0.331008,-0.45136 l -0.331015,-0.3486 -0.07264,-12.698768 c -0.0678,-11.851794 -0.108736,-13.468405 -0.349009,-13.782065 -0.05072,-0.0662 -0.129845,-0.296406 -0.17585,-0.51156 -0.046,-0.21516 -0.13351,-0.391195 -0.19445,-0.391195 -0.06095,0 -0.110806,-0.05645 -0.110806,-0.125449 0,-0.2079 -1.3995,-1.680066 -1.597141,-1.680066 -0.05786,0 -0.186448,-0.08125 -0.28575,-0.180549 -0.0993,-0.0993 -0.285014,-0.180555 -0.41269,-0.180555 -0.127674,0 -0.232134,-0.04625 -0.232134,-0.102726 0,-0.270511 -1.891836,-0.378745 -6.620209,-0.378745 -4.728376,0 -6.620209,0.108234 -6.620209,0.378745 0,0.0565 -0.100202,0.102726 -0.222676,0.102726 -0.273382,0 -1.155342,0.621794 -1.64302,1.15836 -0.572242,0.6296 -0.662021,0.749318 -0.662021,0.88281 0,0.06899 -0.05171,0.125449 -0.114913,0.125449 -0.0632,0 -0.150478,0.189576 -0.193946,0.421285 -0.04347,0.231705 -0.121719,0.421285 -0.173886,0.421285 -0.227027,0 -0.272944,1.839795 -0.344397,13.799566 -0.07346,12.295012 -0.08228,12.664162 -0.309449,12.939492 -0.430995,0.5224 -1.055006,1.06582 -1.223865,1.06582 -0.09199,0 -0.167259,0.0542 -0.167259,0.12037 0,0.0662 -0.216662,0.12036 -0.481471,0.12036 -0.264809,0 -0.481468,0.0542 -0.481468,0.12037 0,0.15763 -15.913242,0.16659 -16.075073,0.009 z"
       id="path36615" />
  </g>
</svg>
