<?xml version="1.0" encoding="UTF-8" standalone="no"?>
<!-- Created with Inkscape (http://www.inkscape.org/) -->

<svg
   version="1.1"
   id="svg49499"
   width="100"
   height="133.2117"
   viewBox="0 0 99.999999 133.2117"
   sodipodi:docname="artiste.svg"
   inkscape:version="1.2.1 (9c6d41e410, 2022-07-14)"
   xmlns:inkscape="http://www.inkscape.org/namespaces/inkscape"
   xmlns:sodipodi="http://sodipodi.sourceforge.net/DTD/sodipodi-0.dtd"
   xmlns="http://www.w3.org/2000/svg"
   xmlns:svg="http://www.w3.org/2000/svg">
  <defs
     id="defs49503" />
  <sodipodi:namedview
     id="namedview49501"
     pagecolor="#ffffff"
     bordercolor="#000000"
     borderopacity="0.25"
     inkscape:showpageshadow="2"
     inkscape:pageopacity="0.0"
     inkscape:pagecheckerboard="0"
     inkscape:deskcolor="#d1d1d1"
     showgrid="false"
     inkscape:zoom="0.60281981"
     inkscape:cx="306.06161"
     inkscape:cy="160.91044"
     inkscape:window-width="1920"
     inkscape:window-height="1017"
     inkscape:window-x="-8"
     inkscape:window-y="-8"
     inkscape:window-maximized="1"
     inkscape:current-layer="g49505" />
  <g
     inkscape:groupmode="layer"
     inkscape:label="Image"
     id="g49505"
     transform="translate(-174.96042,-4.1700476)">
    <g
       id="g50001"
       transform="matrix(0.09628774,0,0,0.09628774,158.11388,3.7685231)">
      <path
         style="opacity:0.914;fill:#008080;stroke-width:4.97661;stroke-linecap:round;stroke-linejoin:round"
         d="m 175.54785,1286.8688 c 0.55925,-95.9416 2.41428,-139.4445 6.1382,-143.9485 0.77321,-0.9352 1.92325,-5.6008 2.55564,-10.3679 0.63239,-4.7672 1.80012,-8.6676 2.59495,-8.6676 0.79484,0 1.44516,-1.8663 1.44516,-4.1472 0,-2.281 0.68088,-4.1472 1.51306,-4.1472 0.83218,0 2.01754,-2.986 2.63412,-6.6355 0.61658,-3.6495 1.62584,-6.6355 2.24279,-6.6355 1.22543,0 6.881,-12.2803 6.881,-14.9412 0,-0.9061 0.55986,-1.656 1.24415,-1.6665 0.68428,-0.01 2.67061,-2.9964 4.41406,-6.6355 1.74344,-3.639 3.71537,-6.6164 4.38205,-6.6164 0.66669,0 1.68055,-1.8663 2.25303,-4.1472 0.57249,-2.2809 1.77315,-4.1472 2.66815,-4.1472 0.89499,0 1.62726,-0.7998 1.62726,-1.7773 0,-0.9776 0.93312,-2.8179 2.07359,-4.0896 4.4358,-4.9464 6.22076,-7.3012 6.22076,-8.2068 0,-1.2045 36.27765,-37.3513 37.48659,-37.3513 0.49743,0 1.94493,-0.9331 3.21666,-2.0735 5.27799,-4.7333 12.21455,-9.3006 16.11307,-10.6096 1.59666,-0.53614 2.90302,-1.55328 2.90302,-2.26033 0,-0.70706 1.86623,-1.75396 4.14718,-2.32644 2.28094,-0.57248 4.14717,-1.77314 4.14717,-2.66814 0,-0.895 1.11974,-1.62727 2.48831,-1.62727 1.36857,0 2.48831,-0.71266 2.48831,-1.5837 0,-0.87103 2.61272,-2.07385 5.80604,-2.67292 3.19333,-0.59907 5.80605,-1.75264 5.80605,-2.56347 0,-0.81084 1.11974,-1.47426 2.4883,-1.47426 1.36857,0 2.48831,-0.74649 2.48831,-1.65887 0,-0.91238 1.67961,-1.66347 3.73246,-1.66909 2.05285,-0.006 5.88408,-1.13233 8.51384,-2.5038 2.62975,-1.37147 7.68512,-2.9579 11.23413,-3.52542 3.54902,-0.56751 6.85353,-1.68027 7.34334,-2.47281 0.48982,-0.79253 3.39704,-1.44097 6.46047,-1.44097 3.06346,0 5.88083,-0.93312 6.26085,-2.07359 0.53112,-1.59401 14.69697,-2.2082 61.24963,-2.65562 l 60.55872,-0.58204 1.05498,30.42795 c 0.63656,18.36029 1.72924,30.65269 2.7551,30.99469 0.93507,0.3117 1.70014,3.4904 1.70014,7.0639 0,3.5735 0.64502,6.4973 1.4334,6.4973 0.78836,0 1.90908,3.4705 2.49046,7.7122 0.5814,4.2418 1.66614,8.5341 2.41054,9.5386 0.74438,1.0044 2.76422,6.1185 4.48852,11.3647 1.72431,5.2462 3.727,9.5385 4.45045,9.5385 0.72344,0 1.31534,0.8203 1.31534,1.8229 0,2.6156 5.29523,13.5414 7.81669,16.1284 1.1751,1.2057 2.13653,3.2585 2.13653,4.5619 0,1.3034 0.74649,2.3698 1.65887,2.3698 0.91238,0 1.65887,1.0576 1.65887,2.3501 0,1.2926 0.56543,2.5989 1.2565,2.903 0.69106,0.3042 3.83678,3.9122 6.99048,8.0179 3.15369,4.1057 8.18697,9.8409 11.18503,12.7449 2.99808,2.9039 5.45105,6.0765 5.45105,7.0502 0,0.9736 0.59449,1.7702 1.32107,1.7702 0.72661,0 6.04272,4.479 11.81358,9.9533 5.77088,5.4742 11.03222,9.9532 11.69187,9.9532 0.65965,0 3.36832,1.8855 6.01928,4.19 2.65096,2.3046 6.49952,4.6249 8.55237,5.1565 2.05286,0.5315 3.73246,1.5118 3.73246,2.1785 0,0.6667 2.97741,2.6386 6.61646,4.3821 3.63904,1.7434 6.62501,3.6959 6.63548,4.3389 0.01,0.6429 2.63175,1.6591 5.82507,2.2582 3.19333,0.599 5.80605,1.7526 5.80605,2.5634 0,0.8109 1.44892,1.4743 3.21983,1.4743 1.77091,0 3.65455,0.7034 4.18585,1.563 0.5313,0.8597 4.30782,2.0642 8.39226,2.6767 4.08443,0.6125 7.42625,1.7754 7.42625,2.5841 0,0.8088 2.55051,1.4706 5.66781,1.4706 3.11728,0 5.91663,0.7333 6.22076,1.6295 0.66199,1.9509 32.01873,5.3245 49.48963,5.3245 17.47091,0 48.82765,-3.3736 49.48964,-5.3245 0.30413,-0.8962 3.10348,-1.6295 6.22076,-1.6295 3.1173,0 5.66781,-0.6618 5.66781,-1.4706 0,-0.8087 3.34181,-1.9716 7.42625,-2.5841 4.08444,-0.6125 7.86096,-1.817 8.39226,-2.6767 0.5313,-0.8596 2.41494,-1.563 4.18585,-1.563 1.77091,0 3.21983,-0.6634 3.21983,-1.4743 0,-0.8108 2.61272,-1.9644 5.80605,-2.5634 3.19332,-0.5991 5.8146,-1.6153 5.82507,-2.2582 0.01,-0.643 2.99644,-2.5955 6.63548,-4.3389 3.63905,-1.7435 6.61646,-3.7154 6.61646,-4.3821 0,-0.6667 1.6796,-1.647 3.73246,-2.1785 2.05285,-0.5316 5.90141,-2.8519 8.55237,-5.1565 2.65096,-2.3045 5.35963,-4.19 6.01928,-4.19 0.65965,0 5.92099,-4.479 11.69187,-9.9532 5.77086,-5.4743 11.08697,-9.9533 11.81358,-9.9533 0.72658,0 1.32107,-0.7966 1.32107,-1.7702 0,-0.9737 2.45297,-4.1463 5.45105,-7.0502 2.99806,-2.904 8.03134,-8.6392 11.18503,-12.7449 3.1537,-4.1057 6.29941,-7.7137 6.99048,-8.0179 0.69107,-0.3041 1.2565,-1.6104 1.2565,-2.903 0,-1.2925 0.74649,-2.3501 1.65887,-2.3501 0.91238,0 1.65887,-1.0664 1.65887,-2.3698 0,-1.3034 0.96143,-3.3562 2.13652,-4.5619 2.52147,-2.587 7.8167,-13.5128 7.8167,-16.1284 0,-1.0026 0.62525,-1.8229 1.38944,-1.8229 0.76419,0 2.78697,-4.2923 4.49506,-9.5385 1.70809,-5.2462 3.69458,-10.3603 4.41443,-11.3647 0.71985,-1.0045 1.78452,-5.2968 2.36592,-9.5386 0.58138,-4.2417 1.7021,-7.7122 2.49046,-7.7122 0.78838,0 1.4334,-2.9238 1.4334,-6.4973 0,-3.5735 0.76507,-6.7522 1.70014,-7.0639 1.02586,-0.342 2.11854,-12.6344 2.7551,-30.99469 l 1.05498,-30.42795 60.55872,0.58204 c 46.55264,0.44742 60.71854,1.06161 61.24964,2.65562 0.38,1.14047 3.1974,2.07359 6.2608,2.07359 3.0635,0 5.9707,0.64844 6.4605,1.44097 0.4898,0.79254 3.7943,1.9053 7.3433,2.47281 3.5491,0.56752 8.6044,2.15395 11.2342,3.52542 2.6297,1.37147 6.461,2.49818 8.5138,2.5038 2.0529,0.006 3.7325,0.58062 3.7325,1.27776 0,1.33225 12.1084,7.02681 14.9412,7.02681 0.9061,0 1.6475,0.7465 1.6475,1.65887 0,0.91238 1.1197,1.65887 2.4883,1.65887 1.3686,0 2.4883,0.73227 2.4883,1.62727 0,0.895 1.8662,2.09566 4.1472,2.66814 2.2809,0.57248 4.1471,1.61938 4.1471,2.32644 0,0.70705 1.3064,1.72419 2.9031,2.26033 3.8985,1.309 10.835,5.8763 16.113,10.6096 1.2718,1.1404 2.7193,2.0735 3.2167,2.0735 1.2399,0 37.4866,36.1628 37.4866,37.3998 0,0.5452 0.9331,2.0318 2.0736,3.3035 4.9227,5.4893 6.2207,7.3658 6.2207,8.9928 0,0.9509 0.7323,1.7289 1.6273,1.7289 0.895,0 2.0957,1.8663 2.6682,4.1472 0.5724,2.2809 1.5863,4.1472 2.253,4.1472 0.6667,0 2.6386,2.9774 4.382,6.6164 1.7435,3.6391 3.7298,6.625 4.4141,6.6355 0.6843,0.01 1.2441,0.7604 1.2441,1.6665 0,2.6609 5.6556,14.9412 6.881,14.9412 0.617,0 1.6262,2.986 2.2428,6.6355 0.6166,3.6495 1.802,6.6355 2.6342,6.6355 0.8321,0 1.513,1.8662 1.513,4.1472 0,2.2809 0.6503,4.1472 1.4452,4.1472 0.7948,0 1.9625,3.9004 2.5949,8.6676 0.6324,4.7671 1.7824,9.4327 2.5557,10.3679 3.7239,4.504 5.5789,48.0069 6.1382,143.9485 l 0.5874,100.7764 H 694.2373 174.96042 Z"
         id="path49989" />
      <path
         style="opacity:0.914;fill:#008080;stroke-width:4.97661;stroke-linecap:round;stroke-linejoin:round"
         d="m 688.43126,1112.2727 c -0.56388,-0.9124 -5.41608,-1.6589 -10.78266,-1.6589 -5.36658,0 -10.19212,-0.7034 -10.72342,-1.563 -0.53131,-0.8597 -4.49444,-2.083 -8.80697,-2.7186 -4.31254,-0.6355 -8.21422,-1.6507 -8.67041,-2.2558 -1.15877,-1.5373 -12.5536,-6.7336 -14.76582,-6.7336 -1.00259,0 -1.82288,-0.6655 -1.82288,-1.479 0,-0.8135 -1.86623,-1.9474 -4.14718,-2.5199 -2.28095,-0.5725 -4.14718,-1.7732 -4.14718,-2.6681 0,-0.895 -0.82598,-1.6273 -1.83551,-1.6273 -1.00954,0 -8.49512,-6.9051 -16.63463,-15.3446 -18.72136,-19.4113 -18.96351,-19.7134 -20.40474,-25.4557 -0.66058,-2.632 -1.70174,-5.1661 -2.31368,-5.6315 -2.34749,-1.785 -6.91868,-11.4639 -6.91868,-14.6494 0,-1.8361 -0.79107,-3.602 -1.75793,-3.9243 -0.96686,-0.3222 -2.19613,-6.38 -2.73171,-13.4617 -0.53559,-7.0817 -1.61075,-13.26942 -2.38925,-13.75057 -0.77851,-0.48114 -1.41546,-17.93521 -1.41546,-38.78682 v -37.91202 l 5.39133,1.73713 c 2.96523,0.95543 6.67235,2.37407 8.23804,3.15254 1.56569,0.77847 6.97775,1.90092 12.02681,2.49434 5.04905,0.59341 9.1801,1.72265 9.1801,2.50941 0,0.78676 2.46342,1.43048 5.47427,1.43048 3.01085,0 6.23167,0.7574 7.15739,1.68311 0.92571,0.92571 8.93978,2.15978 17.80904,2.74238 8.86926,0.5826 16.51662,1.69143 16.99414,2.46407 1.13454,1.83573 86.47152,1.83573 87.60607,0 0.47751,-0.77264 8.12489,-1.88147 16.99414,-2.46407 8.86926,-0.5826 16.88333,-1.81667 17.80905,-2.74238 0.9257,-0.92571 4.14653,-1.68311 7.15738,-1.68311 3.01085,0 5.47427,-0.64372 5.47427,-1.43048 0,-0.78676 4.13105,-1.916 9.18011,-2.50941 5.04904,-0.59342 10.4611,-1.71587 12.02681,-2.49434 1.56569,-0.77847 5.29931,-2.20712 8.29694,-3.17477 l 5.45022,-1.75937 -0.67851,37.61744 c -0.67369,37.3486 -3.07027,64.74494 -5.8209,66.54074 -0.78879,0.515 -1.94892,3.7357 -2.57806,7.1571 -0.62915,3.4215 -1.85656,6.2208 -2.72758,6.2208 -0.87104,0 -1.58371,1.1197 -1.58371,2.4883 0,1.3686 -0.68719,2.4883 -1.52706,2.4883 -0.83988,0 -2.03563,2.3155 -2.65721,5.1455 -1.33632,6.0842 -1.461,6.2423 -20.47622,25.9583 -8.13951,8.4395 -15.6251,15.3446 -16.63462,15.3446 -1.00954,0 -1.83552,0.7323 -1.83552,1.6273 0,0.8949 -1.86623,2.0956 -4.14718,2.6681 -2.28095,0.5725 -4.14718,1.7064 -4.14718,2.5199 0,0.8135 -0.82029,1.479 -1.82288,1.479 -2.21222,0 -13.60705,5.1963 -14.76582,6.7336 -0.45619,0.6051 -4.35787,1.6203 -8.67041,2.2558 -4.31253,0.6356 -8.27567,1.8589 -8.80697,2.7186 -0.5313,0.8596 -5.35684,1.563 -10.72342,1.563 -5.36658,0 -10.21878,0.7465 -10.78266,1.6589 -0.56388,0.9123 -3.1766,1.6588 -5.80605,1.6588 -2.62944,0 -5.24216,-0.7465 -5.80604,-1.6588 z"
         id="path49991" />
      <path
         style="opacity:0.914;fill:#008080;stroke-width:4.97661;stroke-linecap:round;stroke-linejoin:round"
         d="m 657.74215,851.83 c 0,-0.91238 -4.06164,-1.65887 -9.02588,-1.65887 -4.96423,0 -9.45105,-0.68792 -9.97067,-1.5287 -0.51964,-0.8408 -5.78914,-2.04749 -11.71,-2.68156 -5.92086,-0.63407 -10.76521,-1.73072 -10.76521,-2.43698 0,-0.70627 -2.4261,-1.69739 -5.39133,-2.2025 -9.26734,-1.57861 -21.1506,-5.12465 -21.1506,-6.31144 0,-0.62475 -2.98596,-1.64037 -6.63548,-2.25696 -3.64951,-0.61658 -6.63548,-1.80193 -6.63548,-2.63412 0,-0.83217 -1.49298,-1.51305 -3.31774,-1.51305 -1.82476,0 -3.31774,-0.7465 -3.31774,-1.65888 0,-0.91237 -0.88846,-1.65887 -1.97436,-1.65887 -2.14525,0 -23.21425,-10.11479 -24.56757,-11.79438 -0.45619,-0.56618 -2.50904,-1.55357 -4.56189,-2.19422 -2.05286,-0.64064 -3.73246,-1.86099 -3.73246,-2.71189 0,-0.85089 -1.11974,-1.54708 -2.48831,-1.54708 -1.36857,0 -2.4883,-0.74649 -2.4883,-1.65887 0,-0.91238 -1.06642,-1.65887 -2.36982,-1.65887 -1.3034,0 -3.35625,-0.93312 -4.56189,-2.07359 -1.20565,-1.14047 -6.67103,-5.39491 -12.14531,-9.45432 -5.47427,-4.05939 -12.56594,-9.84345 -15.75927,-12.85347 -3.19332,-3.01002 -7.07422,-5.88543 -8.62421,-6.38981 -1.54999,-0.50439 -3.2799,-2.37187 -3.84425,-4.14994 -0.56434,-1.7781 -1.64622,-3.23289 -2.40417,-3.23289 -1.94674,0 -18.91328,-18.34728 -25.29728,-27.35599 -0.65255,-0.92084 -3.4519,-4.38552 -6.22077,-7.6993 -2.76886,-3.31376 -5.0343,-6.85959 -5.0343,-7.87963 0,-1.02003 -0.58554,-1.85459 -1.30121,-1.85459 -0.71566,0 -2.71229,-2.4261 -4.43696,-5.39133 -1.72466,-2.96523 -3.56522,-5.76457 -4.09012,-6.22076 -0.5249,-0.45619 -2.37828,-3.62878 -4.11862,-7.0502 -1.74033,-3.42142 -3.79318,-6.22076 -4.56189,-6.22076 -0.76871,0 -1.39765,-0.74137 -1.39765,-1.6475 0,-2.67764 -5.65933,-14.94121 -6.895,-14.94121 -0.62466,0 -1.62761,-2.23947 -2.22878,-4.97661 -0.60118,-2.73714 -1.78023,-4.97661 -2.62012,-4.97661 -0.83988,0 -1.52706,-1.56679 -1.52706,-3.48176 0,-3.16816 -2.92807,-11.16849 -6.74375,-18.42583 -0.81852,-1.5568 -1.97091,-5.84913 -2.56087,-9.53851 -0.58995,-3.68936 -1.72372,-6.70792 -2.51949,-6.70792 -0.79577,0 -1.44685,-2.55052 -1.44685,-5.66782 0,-3.11728 -0.74081,-5.91662 -1.64625,-6.22076 -0.90543,-0.30412 -2.13471,-6.33826 -2.73172,-13.4092 -0.59701,-7.07094 -1.72243,-12.85625 -2.50093,-12.85625 -0.7785,0 -1.41546,-4.43489 -1.41546,-9.85531 0,-5.42043 -0.74649,-10.31668 -1.65887,-10.88057 -1.01837,-0.62939 -1.65887,-14.11762 -1.65887,-34.93418 V 503.4672 h 4.14718 c 2.28094,0 4.14717,-0.74649 4.14717,-1.65887 0,-0.91238 3.31516,-1.65887 7.36702,-1.65887 4.05186,0 7.78013,-0.66843 8.28504,-1.48539 0.50491,-0.81697 6.89414,-2.0144 14.1983,-2.66097 7.30415,-0.64656 13.28028,-1.73704 13.28028,-2.42328 0,-0.68624 6.15387,-1.76092 13.67527,-2.38818 7.5214,-0.62726 14.38912,-1.85433 15.26161,-2.72681 0.87248,-0.87249 4.37895,-1.58634 7.79214,-1.58634 3.41319,0 6.61203,-0.65727 7.10851,-1.46061 0.49649,-0.80334 7.25619,-1.98986 15.02156,-2.63671 7.76536,-0.64685 14.53892,-1.8558 15.05236,-2.68656 0.51344,-0.83076 3.87543,-1.51047 7.4711,-1.51047 3.59567,0 6.53758,-0.6582 6.53758,-1.46266 0,-0.80447 6.3424,-1.99099 14.09422,-2.63671 7.75182,-0.64572 14.5143,-1.85375 15.02774,-2.68451 0.51343,-0.83076 3.83137,-1.51047 7.37319,-1.51047 3.54183,0 6.8459,-0.65728 7.3424,-1.46062 0.49648,-0.80333 7.25897,-1.99008 15.02772,-2.63722 7.76877,-0.64713 14.12504,-1.71282 14.12504,-2.3682 0,-1.04867 5.64089,-2.01412 36.08043,-6.17523 3.87761,-0.53008 7.0502,-1.54681 7.0502,-2.2594 0,-0.71259 6.34239,-1.82394 14.09421,-2.46967 7.75182,-0.64572 14.5143,-1.85375 15.02774,-2.68451 0.51344,-0.83076 3.87544,-1.51047 7.47111,-1.51047 3.59566,0 6.53757,-0.65021 6.53757,-1.4449 0,-0.7947 6.71843,-1.97048 14.92984,-2.61284 8.21141,-0.64237 14.92983,-1.71273 14.92983,-2.37858 0,-1.07064 15.20468,-3.72527 36.08043,-6.29939 3.87761,-0.47813 7.0502,-1.45236 7.0502,-2.16496 0,-0.71259 6.3424,-1.82394 14.09422,-2.46966 7.75181,-0.64573 14.5143,-1.85376 15.02774,-2.68452 0.51343,-0.83075 3.83137,-1.51047 7.37319,-1.51047 3.54183,0 6.8459,-0.65727 7.3424,-1.46061 0.49648,-0.80334 7.25897,-1.99009 15.02772,-2.63722 7.76877,-0.64713 14.12504,-1.85609 14.12504,-2.68656 0,-0.83048 3.35921,-1.50996 7.46491,-1.50996 4.10571,0 7.46492,-0.6501 7.46492,-1.44467 0,-0.79456 6.15159,-1.98127 13.67019,-2.63713 7.5186,-0.65586 14.42364,-1.68536 15.34455,-2.28779 1.62208,-1.06112 20.44123,-4.40306 35.68121,-6.33634 4.1057,-0.52083 7.83816,-1.4698 8.29435,-2.10883 0.72687,-1.0182 11.29679,-2.81677 36.08044,-6.13943 3.87761,-0.51986 7.0502,-1.52823 7.0502,-2.24083 0,-0.71259 6.34239,-1.82394 14.09421,-2.46967 7.75182,-0.64572 14.5143,-1.85375 15.02774,-2.68451 0.51344,-0.83076 3.50219,-1.51047 6.64167,-1.51047 h 5.70812 v 91.13998 c 0,58.97058 -0.5855,91.50185 -1.6589,92.16521 -0.9123,0.56389 -1.65882,5.46014 -1.65882,10.88057 0,5.42042 -0.63696,9.85531 -1.41545,9.85531 -0.77851,0 -1.90392,5.78531 -2.50095,12.85625 -0.59701,7.07094 -1.82628,13.10508 -2.73171,13.4092 -0.90544,0.30414 -1.64625,3.10348 -1.64625,6.22076 0,3.1173 -0.65109,5.66782 -1.44685,5.66782 -0.79577,0 -1.92954,3.01856 -2.51949,6.70792 -0.58996,3.68938 -1.71396,7.98171 -2.49781,9.53851 -3.88839,7.72293 -6.80681,15.71743 -6.80681,18.64613 0,1.7938 -0.68719,3.26146 -1.52706,3.26146 -0.83988,0 -2.01894,2.23947 -2.62012,4.97661 -0.60117,2.73714 -1.60412,4.97661 -2.22879,4.97661 -1.23566,0 -6.89499,12.26357 -6.89499,14.94121 0,0.90613 -0.62895,1.6475 -1.39765,1.6475 -0.76871,0 -2.82156,2.78796 -4.5619,6.19545 -1.74033,3.4075 -4.09736,7.19329 -5.23783,8.41284 -1.14047,1.21957 -2.07359,3.11901 -2.07359,4.221 0,1.10198 -1.49298,3.07967 -3.31774,4.39489 -1.82476,1.31522 -3.31774,3.06107 -3.31774,3.87967 0,0.81862 -2.05285,3.96284 -4.56189,6.98718 -2.50905,3.02432 -7.17462,8.63483 -10.36794,12.46777 -3.19333,3.83295 -6.36323,7.91777 -7.04423,9.07737 -1.73536,2.95495 -19.92189,20.65578 -26.35227,25.64848 -2.93774,2.28095 -6.14311,4.92918 -7.12304,5.88498 -0.97991,0.95577 -6.26061,5.06147 -11.73488,9.12378 -5.47428,4.0623 -10.93966,8.31911 -12.14531,9.45958 -1.20563,1.14047 -3.25849,2.07359 -4.56189,2.07359 -1.30339,0 -2.36982,0.74649 -2.36982,1.65887 0,0.91238 -1.11973,1.65887 -2.4883,1.65887 -1.36857,0 -2.48831,0.69619 -2.48831,1.54708 0,0.8509 -1.6796,2.07125 -3.73246,2.71189 -2.05285,0.64065 -4.1057,1.62804 -4.56189,2.19422 -1.35332,1.67959 -22.42232,11.79438 -24.56757,11.79438 -1.0859,0 -1.97436,0.7465 -1.97436,1.65887 0,0.91238 -1.49298,1.65888 -3.31774,1.65888 -1.82476,0 -3.31774,0.68088 -3.31774,1.51305 0,0.83219 -2.98597,2.01754 -6.63548,2.63412 -3.64952,0.61659 -6.63548,1.63221 -6.63548,2.25696 0,1.18679 -11.88326,4.73283 -21.1506,6.31144 -2.96523,0.50511 -5.39133,1.49623 -5.39133,2.2025 0,0.70626 -4.84435,1.80291 -10.76521,2.43698 -5.92086,0.63407 -11.19036,1.84076 -11.71,2.68156 -0.51962,0.84078 -5.00644,1.5287 -9.97067,1.5287 -4.96424,0 -9.02588,0.74649 -9.02588,1.65887 0,1.05564 -13.27097,1.65887 -36.49516,1.65887 -23.22418,0 -36.49515,-0.60323 -36.49515,-1.65887 z m -49.0529,-255.27801 c 0.49995,-0.80894 3.54673,-1.96564 6.77063,-2.57045 3.2239,-0.60481 6.77092,-2.55565 7.88228,-4.33524 1.11136,-1.77957 2.97682,-3.23558 4.1455,-3.23558 1.16865,0 2.97513,-1.86623 4.0144,-4.14717 1.03928,-2.28095 2.50743,-4.14718 3.26258,-4.14718 0.75514,0 1.85047,-2.98597 2.43404,-6.63548 0.58358,-3.64952 1.71214,-6.63548 2.50792,-6.63548 0.79576,0 1.44685,-4.8522 1.44685,-10.78266 0,-5.93046 -0.64882,-10.78266 -1.44183,-10.78266 -0.79299,0 -1.86052,-2.58015 -2.37226,-5.73366 -0.99569,-6.13572 -13.96924,-20.80827 -18.39877,-20.80827 -1.31654,0 -2.70467,-0.93311 -3.0847,-2.07359 -0.97883,-2.93737 -34.6837,-2.93737 -35.66464,0 -0.38088,1.14048 -1.76966,2.07359 -3.08621,2.07359 -3.0316,0 -15.60785,12.60186 -18.89512,18.93362 -4.92447,9.48523 -2.63798,37.36106 3.48148,42.44459 0.54915,0.45619 1.88296,2.50904 2.96403,4.56189 1.08107,2.05286 2.87949,3.73246 3.99649,3.73246 1.117,0 2.94019,1.45601 4.05156,3.23558 1.11136,1.77959 4.65012,3.72889 7.86394,4.33181 3.21383,0.6029 5.8433,1.75961 5.8433,2.57045 0,1.92285 21.09027,1.9261 22.27853,0.003 z m 193.37464,-0.003 c 0,-0.81084 2.62947,-1.96755 5.8433,-2.57045 3.21382,-0.60292 6.75258,-2.55222 7.86394,-4.33181 1.11136,-1.77957 2.97683,-3.23558 4.1455,-3.23558 1.16866,0 2.97514,-1.86623 4.01441,-4.14717 1.03928,-2.28095 2.51625,-4.14718 3.28219,-4.14718 0.76591,0 1.39259,-1.05753 1.39259,-2.35007 0,-1.29253 0.92078,-2.657 2.04618,-3.03212 3.11921,-1.03975 2.80734,-30.86679 -0.38731,-37.0439 -3.27724,-6.33677 -15.85464,-18.95212 -18.89512,-18.95212 -1.31655,0 -2.70534,-0.93311 -3.08621,-2.07359 -0.4944,-1.4804 -5.59584,-2.07359 -17.83308,-2.07359 -12.23801,0 -17.33821,0.59309 -17.83156,2.07359 -0.38003,1.14048 -1.76816,2.07359 -3.0847,2.07359 -4.42954,0 -17.40308,14.67255 -18.39877,20.80827 -0.51174,3.15351 -1.57928,5.73366 -2.37227,5.73366 -0.793,0 -1.44182,4.8522 -1.44182,10.78266 0,5.93046 0.65109,10.78266 1.44685,10.78266 0.79578,0 1.92434,2.98596 2.50791,6.63548 0.58358,3.64951 1.67891,6.63548 2.43405,6.63548 0.75515,0 2.2233,1.86623 3.26258,4.14718 1.03927,2.28094 2.84574,4.14717 4.0144,4.14717 1.16868,0 3.05181,1.48431 4.18477,3.29847 1.2368,1.98042 4.71058,3.7223 8.69339,4.35918 3.64841,0.58341 6.63346,1.71182 6.63346,2.5076 0,0.79576 4.8522,1.44685 10.78266,1.44685 5.93046,0 10.78266,-0.66342 10.78266,-1.47426 z"
         id="path49993" />
      <path
         style="opacity:0.914;fill:#008080;stroke-width:4.97661;stroke-linecap:round;stroke-linejoin:round"
         d="m 317.12074,426.05323 c -0.60825,-0.60824 -1.10591,-4.3407 -1.10591,-8.29435 0,-3.95363 -0.6582,-7.18843 -1.46266,-7.18843 -0.80447,0 -1.99099,-6.34239 -2.63671,-14.09421 -0.64572,-7.75182 -1.85375,-14.51431 -2.68451,-15.02774 -0.83076,-0.51344 -1.51047,-3.87544 -1.51047,-7.47111 0,-3.59567 -0.74649,-6.53757 -1.65887,-6.53757 -2.43989,0 -2.02155,-11.4864 0.51056,-14.0185 1.19318,-1.1932 7.695,-2.72435 14.44847,-3.40258 11.81293,-1.18633 17.67468,-3.10468 20.26656,-6.63255 0.67032,-0.91238 1.23019,-7.40012 1.24416,-14.41721 0.014,-7.01709 0.77189,-13.2197 1.68427,-13.78358 0.91238,-0.56389 1.65887,-3.17661 1.65887,-5.80605 0,-2.62944 0.71199,-5.22085 1.58221,-5.75867 0.87022,-0.53782 2.08638,-5.43408 2.70258,-10.88057 0.6162,-5.44648 1.71112,-9.90269 2.43316,-9.90269 0.72203,0 1.80466,-2.23947 2.40584,-4.97661 0.60117,-2.73714 1.78022,-4.97661 2.62011,-4.97661 0.83988,0 1.52706,-1.49299 1.52706,-3.31774 0,-1.82476 0.7465,-3.31774 1.65887,-3.31774 0.91238,0 1.65887,-1.24101 1.65887,-2.75779 0,-2.32465 8.76496,-17.8457 11.55766,-20.4664 0.92926,-0.87204 2.58806,-3.46795 8.74629,-13.68747 2.06232,-3.4224 5.01785,-6.63318 6.56785,-7.13506 1.54999,-0.50187 3.2799,-2.3673 3.84424,-4.14538 0.56434,-1.77809 1.59927,-3.23289 2.29985,-3.23289 0.70057,0 4.94259,-3.41885 9.42671,-7.59744 12.43872,-11.59118 15.35552,-13.96788 17.14206,-13.96788 0.90351,0 3.47862,-1.83587 5.72246,-4.07971 2.24384,-2.24385 6.01023,-4.56425 8.36976,-5.15645 2.35952,-0.5922 4.29004,-1.74229 4.29004,-2.55577 0,-0.81346 0.74137,-1.47903 1.64749,-1.47903 2.81002,0 14.94121,-5.68935 14.94121,-7.0072 0,-0.68638 2.98597,-1.72543 6.63549,-2.309 3.64951,-0.58357 6.63548,-1.71214 6.63548,-2.50791 0,-0.79577 1.86623,-1.44685 4.14717,-1.44685 2.28095,0 4.14718,-0.68708 4.14718,-1.52684 0,-0.83976 4.8522,-2.04646 10.78266,-2.68156 5.93046,-0.6351 10.78266,-1.81425 10.78266,-2.62034 0,-0.80609 2.61272,-1.46562 5.80604,-1.46562 3.19333,0 5.80605,-0.66048 5.80605,-1.46773 0,-0.80725 4.1057,-1.9807 9.12379,-2.60767 5.01808,-0.62697 9.12379,-1.83272 9.12379,-2.67944 0,-0.84673 1.30636,-1.53582 2.90302,-1.5313 1.59666,0.004 6.44886,-1.2627 10.78266,-2.81601 10.23309,-3.66773 10.12141,-9.20194 -0.41472,-20.55442 -3.73576,-4.02522 -7.10559,-8.43054 -10.66,-13.93568 -1.75729,-2.72173 -4.92988,-6.81951 -7.0502,-9.10617 -2.12032,-2.28667 -3.85512,-4.671754 -3.85512,-5.300191 0,-0.628437 -0.93311,-2.129049 -2.07359,-3.334691 -3.62255,-3.829564 -11.19737,-14.367015 -11.19737,-15.576854 0,-1.799836 6.67246,-7.534238 17.07795,-14.677041 5.20519,-3.573073 9.46398,-7.118908 9.46398,-7.879635 0,-0.760725 0.7998,-1.383136 1.77736,-1.383136 0.97754,0 2.76106,-0.933115 3.96336,-2.073588 1.2023,-1.140474 4.28916,-3.566572 6.85969,-5.391329 2.57052,-1.824758 6.01245,-4.624102 7.64872,-6.220765 1.63628,-1.596663 3.47615,-2.903023 4.08859,-2.903023 0.61244,0 2.44592,-1.205802 4.07442,-2.67956 2.66927,-2.415668 3.21309,-2.427336 5.52194,-0.118494 1.40858,1.408587 2.56107,3.256318 2.56107,4.106068 0,0.84975 1.86623,2.946478 4.14717,4.659397 2.28095,1.71292 4.14718,4.003638 4.14718,5.090484 0,1.086847 0.93311,2.96252 2.07359,4.168162 1.14047,1.205644 5.43091,6.67103 9.53431,12.145303 4.1034,5.474272 7.85311,10.326469 8.33267,10.782658 0.47958,0.456189 2.27857,3.06891 3.99778,5.806047 1.71922,2.737136 4.12806,5.573574 5.35301,6.303193 1.22496,0.729625 2.22718,2.089306 2.22718,3.021519 0,2.417151 4.33839,6.434561 6.94866,6.434561 1.21497,0 4.22168,-1.86623 6.68157,-4.147176 2.4599,-2.280947 5.19744,-4.147177 6.08342,-4.147177 0.88597,0 3.07883,-1.866229 4.87303,-4.147176 1.7942,-2.280947 4.35653,-4.147176 5.69409,-4.147176 1.33755,0 3.83339,-1.86623 5.54632,-4.147176 1.71292,-2.280947 3.89491,-4.147177 4.84888,-4.147177 1.69666,0 8.71139,-4.998004 13.96945,-9.953223 1.45221,-1.368568 4.84813,-3.921442 7.54648,-5.673055 5.73445,-3.722449 6.38609,-4.216018 14.33515,-10.857956 3.31376,-2.768867 6.85959,-5.034305 7.87963,-5.034305 1.02002,0 1.85459,-0.696188 1.85459,-1.547083 0,-0.850896 1.36138,-1.979172 3.02529,-2.507278 1.66393,-0.528108 4.48365,-2.258018 6.26606,-3.844247 1.7824,-1.586228 6.01971,-4.307962 9.41623,-6.048298 3.3965,-1.740334 6.17547,-3.75936 6.17547,-4.486724 0,-0.727363 2.61272,-1.812629 5.80605,-2.4117 3.19333,-0.599072 5.80605,-1.752635 5.80605,-2.563474 0,-0.81084 1.0344,-1.474254 2.29868,-1.474254 1.26427,0 4.43686,-1.115138 7.0502,-2.478086 2.61333,-1.362947 6.38706,-2.482685 8.38607,-2.488305 1.999,-0.0056 4.0746,-0.722216 4.61242,-1.592433 0.53782,-0.8702174 5.45078,-2.0882665 10.91767,-2.7067759 5.46691,-0.6185093 10.34042,-1.7727428 10.83004,-2.5649631 1.21567,-1.9669965 59.96477,-1.850061 61.18344,0.121781 0.53101,0.8591997 6.17375,2.0753918 12.53942,2.7026491 6.36568,0.6272569 11.57396,1.7248899 11.57396,2.4391839 0,0.714293 2.98596,1.803191 6.63548,2.419773 3.64951,0.616582 6.63548,1.801934 6.63548,2.634117 0,0.832182 1.44892,1.513059 3.21983,1.513059 1.77091,0 3.6289,0.661868 4.12887,1.470816 0.49995,0.808948 3.52997,1.962512 6.73337,2.563474 3.20341,0.600963 5.82438,1.687775 5.82438,2.415138 0,0.727364 2.77897,2.74639 6.17547,4.486724 3.39652,1.740336 7.63383,4.46207 9.41623,6.048298 1.78241,1.586229 4.60212,3.316139 6.26605,3.844247 1.66392,0.528106 3.0253,1.67981 3.0253,2.55934 0,0.879532 1.30636,2.075543 2.90303,2.657803 1.59666,0.582262 10.22031,8.583619 19.16367,17.780796 19.24935,19.795676 20.40402,21.153392 21.8414,25.682162 0.60774,1.914827 1.80117,3.481504 2.65207,3.481504 0.85088,0 1.54708,1.119738 1.54708,2.488306 0,1.368568 0.73227,2.488306 1.62727,2.488306 0.89499,0 2.09565,1.866229 2.66814,4.147176 0.57248,2.28095 1.70643,4.14718 2.51991,4.14718 0.81346,0 1.50277,1.6796 1.53178,3.73245 0.029,2.05286 1.14877,5.1815 2.48831,6.95255 1.33955,1.77104 2.43555,4.57039 2.43555,6.22076 0,1.65038 0.71267,3.00068 1.58371,3.00068 0.87102,0 2.03155,2.79935 2.57893,6.22077 0.54738,3.42142 1.70094,7.51699 2.56347,9.10128 0.86254,1.58428 1.56824,4.75687 1.56824,7.05019 0,2.29333 0.67074,4.16969 1.49052,4.16969 0.81978,0 2.01557,5.22839 2.65732,11.61865 0.64175,6.39026 1.83725,12.03301 2.65667,12.53943 0.81941,0.50644 1.48985,4.23594 1.48985,8.2878 0,4.05186 0.65012,7.36701 1.44462,7.36701 0.7946,0 1.9757,6.08656 2.6246,13.52569 0.6659,7.63405 2.1528,14.49859 3.4134,15.75927 2.609,2.60895 10.1074,2.98065 11.5944,0.57471 0.5639,-0.91238 4.3404,-1.65887 8.3922,-1.65887 4.0519,0 7.3671,-0.74649 7.3671,-1.65887 0,-0.91238 1.8662,-1.65887 4.1471,-1.65887 3.8011,0 4.1472,0.61478 4.1472,7.36701 0,4.05186 0.6684,7.78014 1.4854,8.28505 0.817,0.50491 2.0148,6.89833 2.6618,14.20761 0.647,7.30928 1.8448,13.7027 2.6618,14.20761 0.8169,0.50491 1.4854,4.17098 1.4854,8.1468 0,3.97583 0.6823,7.4776 1.5164,7.78174 0.834,0.30412 1.7561,3.91217 2.0492,8.01787 l 0.5328,7.46492 -7.4405,0.51944 c -4.0923,0.28569 -8.1498,1.21881 -9.0165,2.07359 -0.8668,0.85478 -4.4126,1.55414 -7.8797,1.55414 -3.467,0 -6.3037,0.65821 -6.3037,1.46266 0,0.80447 -6.3424,1.991 -14.0942,2.63671 -7.7518,0.64573 -14.46602,1.77569 -14.92051,2.51103 -0.45446,0.73535 -6.80661,1.86637 -14.11589,2.51339 -7.30928,0.64703 -13.7027,1.84483 -14.20761,2.66179 -0.50491,0.81696 -4.23319,1.48539 -8.28505,1.48539 -4.05185,0 -7.36701,0.6582 -7.36701,1.46266 0,0.80447 -6.34239,1.99099 -14.09421,2.63671 -7.75182,0.64573 -14.5143,1.85375 -15.02774,2.68451 -0.51344,0.83076 -3.83138,1.51047 -7.3732,1.51047 -3.54182,0 -6.85279,0.66843 -7.3577,1.48539 -0.50491,0.81696 -6.89833,2.01476 -14.20762,2.66179 -7.30928,0.64702 -13.7027,1.84483 -14.20761,2.66179 -0.50491,0.81696 -4.23319,1.48538 -8.28504,1.48538 -4.05186,0 -7.36701,0.66879 -7.36701,1.48622 0,0.81741 -6.15856,2.01987 -13.68569,2.67214 -7.52712,0.65227 -14.43217,1.76681 -15.34455,2.47676 -0.91238,0.70995 -7.07389,1.82302 -13.69223,2.47349 -6.61836,0.65046 -12.44774,1.85309 -12.95416,2.67251 -0.50643,0.81941 -4.19188,1.48985 -8.18989,1.48985 -3.99801,0 -7.68223,0.66842 -8.18714,1.48538 -0.50491,0.81696 -6.89833,2.01477 -14.20761,2.66179 -7.30928,0.64703 -13.7027,1.84483 -14.20761,2.66179 -0.50491,0.81696 -4.23319,1.48539 -8.28505,1.48539 -4.05186,0 -7.36701,0.62612 -7.36701,1.39141 0,0.76527 -6.15856,2.20373 -13.68568,3.19656 -7.52713,0.99283 -20.03086,3.01616 -27.78608,4.49625 -7.75522,1.4801 -17.45961,3.1077 -21.56532,3.61692 -4.1057,0.50921 -8.21141,1.51767 -9.12379,2.24102 -0.91237,0.72333 -7.45494,1.85168 -14.53905,2.50743 -7.08411,0.65575 -13.28671,1.85004 -13.78359,2.654 -0.49686,0.80395 -4.21856,1.46173 -8.27041,1.46173 -4.05186,0 -7.36701,0.67947 -7.36701,1.50995 0,0.83048 -6.34518,2.0385 -14.1004,2.68452 -7.75522,0.64599 -14.1004,1.83275 -14.1004,2.63722 0,0.80445 -3.35922,1.46266 -7.46492,1.46266 -4.1057,0 -7.46492,0.65009 -7.46492,1.44466 0,0.79458 -6.15159,1.98129 -13.67019,2.63714 -7.51859,0.65585 -14.42364,1.68536 -15.34455,2.2878 -1.4922,0.97614 -15.91462,3.59099 -34.85177,6.31875 -3.64952,0.52568 -7.38198,1.53558 -8.29435,2.24424 -0.91238,0.70863 -7.81743,1.8221 -15.34456,2.47437 -7.52712,0.65227 -13.68568,1.85473 -13.68568,2.67214 0,0.81742 -3.31515,1.48622 -7.36701,1.48622 -4.05186,0 -7.78013,0.66842 -8.28504,1.48538 -0.50492,0.81696 -6.89415,2.0144 -14.1983,2.66096 -7.30416,0.64658 -13.28028,1.84438 -13.28028,2.66179 0,0.81743 -3.73246,1.48622 -8.29435,1.48622 -4.5619,0 -8.29436,0.65878 -8.29436,1.46397 0,0.80518 -5.78531,1.99948 -12.85624,2.65399 -7.07094,0.65451 -13.60274,1.77237 -14.51512,2.48411 -0.91238,0.71175 -7.4392,1.82015 -14.50405,2.46312 -7.06484,0.64297 -13.26746,1.8523 -13.78358,2.68739 -0.51612,0.83511 -4.20951,1.51838 -8.20752,1.51838 -3.99801,0 -7.68222,0.66843 -8.18713,1.48539 -0.50492,0.81696 -6.89415,2.0144 -14.19831,2.66096 -7.30415,0.64658 -13.28028,1.84438 -13.28028,2.66179 0,1.71433 -8.85174,2.03474 -10.50618,0.38029 z"
         id="path49995" />
    </g>
  </g>
</svg>
