<?xml version="1.0" encoding="UTF-8" standalone="no"?>
<!-- Created with Inkscape (http://www.inkscape.org/) -->

<svg
   version="1.1"
   id="svg51827"
   width="100"
   height="76.427361"
   viewBox="0 0 99.999999 76.42736"
   sodipodi:docname="categories.svg"
   inkscape:version="1.2.1 (9c6d41e410, 2022-07-14)"
   xmlns:inkscape="http://www.inkscape.org/namespaces/inkscape"
   xmlns:sodipodi="http://sodipodi.sourceforge.net/DTD/sodipodi-0.dtd"
   xmlns="http://www.w3.org/2000/svg"
   xmlns:svg="http://www.w3.org/2000/svg">
  <defs
     id="defs51831" />
  <sodipodi:namedview
     id="namedview51829"
     pagecolor="#ffffff"
     bordercolor="#000000"
     borderopacity="0.25"
     inkscape:showpageshadow="2"
     inkscape:pageopacity="0.0"
     inkscape:pagecheckerboard="0"
     inkscape:deskcolor="#d1d1d1"
     showgrid="false"
     inkscape:zoom="0.60281981"
     inkscape:cx="476.92527"
     inkscape:cy="529.17969"
     inkscape:window-width="1920"
     inkscape:window-height="1017"
     inkscape:window-x="-8"
     inkscape:window-y="-8"
     inkscape:window-maximized="1"
     inkscape:current-layer="g51833" />
  <g
     inkscape:groupmode="layer"
     inkscape:label="Image"
     id="g51833"
     transform="translate(-4.0283985,-166.7413)">
    <g
       id="g54513"
       transform="matrix(0.07244184,0,0,0.07244184,3.7365739,154.66225)">
      <path
         style="opacity:0.914;fill:#008080;stroke-width:4.97661;stroke-linecap:round;stroke-linejoin:round"
         d="m 448.03886,1220.332 c -0.48478,-0.7844 -7.7789,-1.8195 -16.20916,-2.3001 -9.04534,-0.5158 -15.58009,-1.631 -15.94343,-2.7211 -0.33863,-1.0159 -2.60633,-1.8708 -5.03934,-1.8998 -2.43301,-0.029 -5.87269,-1.1487 -7.64374,-2.4883 -1.77105,-1.3395 -4.57039,-2.4355 -6.22076,-2.4355 -1.65038,0 -3.00069,-0.6656 -3.00069,-1.4791 0,-0.8134 -1.93051,-1.9635 -4.29004,-2.5557 -2.35952,-0.5922 -6.12591,-2.9126 -8.36975,-5.1565 -2.24385,-2.2438 -4.69321,-4.0797 -5.44304,-4.0797 -2.32223,0 -19.15802,-17.2402 -23.16134,-23.7178 -2.08776,-3.378 -4.48153,-6.1419 -5.3195,-6.1419 -0.83796,0 -1.52357,-1.493 -1.52357,-3.3177 0,-1.8248 -0.68718,-3.3178 -1.52707,-3.3178 -0.83988,0 -2.01893,-2.2394 -2.62011,-4.9766 -0.60117,-2.7371 -1.78022,-4.9766 -2.62011,-4.9766 -0.83988,0 -1.52706,-1.1197 -1.52706,-2.4883 0,-1.3686 -0.64252,-2.4883 -1.42781,-2.4883 -0.78529,0 -1.88519,-3.8619 -2.44422,-8.582 -0.55903,-4.7202 -1.78274,-9.3484 -2.71937,-10.285 -2.12052,-2.1205 -2.31135,-47.4878 -0.19975,-47.4878 0.82676,0 2.03685,-3.9191 2.68908,-8.7091 0.65223,-4.79 1.69429,-9.0823 2.31568,-9.5385 1.55036,-1.1382 6.763,-12.519 6.763,-14.7658 0,-1.0026 0.74649,-1.8229 1.65887,-1.8229 0.91238,0 1.65887,-0.7963 1.65887,-1.7695 0,-6.3622 34.99895,-41.36112 41.36108,-41.36112 0.97325,0 1.76955,-0.74649 1.76955,-1.65887 0,-0.91238 0.8203,-1.65887 1.82289,-1.65887 2.24677,0 13.62764,-5.21264 14.76582,-6.763 0.45619,-0.6214 4.74851,-1.66345 9.5385,-2.31568 4.78999,-0.65223 8.70907,-1.86232 8.70907,-2.68908 0,-0.82677 5.59869,-1.50321 12.44153,-1.50321 7.18844,0 12.44153,-0.70041 12.44153,-1.65887 0,-1.10142 137.1333,-1.65887 408.08214,-1.65887 270.94889,0 408.08219,0.55745 408.08219,1.65887 0,0.95729 5.2204,1.65887 12.3436,1.65887 6.789,0 12.7916,0.72485 13.3391,1.61078 0.5476,0.88593 4.6973,2.10184 9.2217,2.70202 4.5244,0.60018 8.2262,1.74156 8.2262,2.5364 0,0.79483 1.493,1.44515 3.3177,1.44515 1.8248,0 3.3178,0.68718 3.3178,1.52707 0,0.83988 2.2394,2.01893 4.9766,2.62011 2.7371,0.60118 4.9766,1.78023 4.9766,2.62011 0,0.83989 0.7247,1.52707 1.6104,1.52707 1.7696,0 17.1722,10.14962 17.9544,11.83122 0.2683,0.5768 4.0007,4.7243 8.2943,9.2168 10.1558,10.6262 15.2715,17.3106 15.2715,19.9544 0,1.1705 0.7465,2.1282 1.6589,2.1282 0.9124,0 1.6589,1.1197 1.6589,2.4883 0,1.3686 0.6634,2.4883 1.4742,2.4883 0.8109,0 1.9644,2.6127 2.5635,5.8061 0.5991,3.1933 1.7004,5.806 2.4474,5.806 0.7471,0 1.834,3.4705 2.4153,7.7123 0.5814,4.2417 1.8427,8.6589 2.8029,9.8158 3.941,4.7486 -0.9771,67.0743 -5.2928,67.0743 -0.6437,0 -1.6622,2.2395 -2.2634,4.9766 -0.6011,2.7372 -1.598,4.9766 -2.2151,4.9766 -0.6172,0 -2.1833,2.4261 -3.4802,5.3914 -4.0388,9.2342 -27.5437,36.0804 -31.5899,36.0804 -0.8511,0 -3.3833,1.8359 -5.6271,4.0797 -2.2439,2.2439 -6.0103,4.5643 -8.3698,5.1565 -2.3595,0.5922 -4.29,1.6829 -4.29,2.4239 0,0.741 -2.2309,1.8372 -4.9576,2.4361 -2.7267,0.5989 -5.3835,1.7779 -5.904,2.6201 -0.5205,0.8422 -2.6192,1.5313 -4.6638,1.5313 -2.0446,0 -4.5544,0.8368 -5.5772,1.8596 -1.0228,1.0229 -8.6577,2.2473 -16.9664,2.7211 -8.3087,0.4737 -15.5034,1.5031 -15.9881,2.2875 -0.4879,0.7893 -183.0042,1.4261 -408.76779,1.4261 -225.76363,0 -408.27989,-0.6368 -408.76775,-1.4261 z"
         id="path54495" />
      <path
         style="opacity:0.914;fill:#008080;stroke-width:4.97661;stroke-linecap:round;stroke-linejoin:round"
         d="m 448.02463,813.88566 c -0.4926,-0.79704 -7.27142,-1.78381 -15.06404,-2.19283 -7.79261,-0.40901 -15.04785,-1.6231 -16.12273,-2.69798 -1.07489,-1.0749 -4.04452,-1.95435 -6.59919,-1.95435 -2.55466,0 -4.64483,-0.71267 -4.64483,-1.58371 0,-0.87102 -2.61272,-2.07385 -5.80605,-2.67292 -3.19332,-0.59907 -5.80605,-1.75263 -5.80605,-2.56347 0,-0.81084 -1.11973,-1.47425 -2.4883,-1.47425 -1.36857,0 -2.48831,-0.7465 -2.48831,-1.65887 0,-0.91238 -1.00552,-1.65887 -2.23448,-1.65887 -1.22897,0 -3.78495,-1.30637 -5.67998,-2.90303 -1.89502,-1.59666 -5.78851,-4.76925 -8.65221,-7.0502 -11.72713,-9.34072 -26.56396,-26.97192 -26.56396,-31.56704 0,-0.88571 -0.68718,-1.61037 -1.52707,-1.61037 -0.83988,0 -2.01893,-2.23947 -2.62011,-4.97661 -0.60117,-2.73714 -1.78022,-4.97661 -2.62011,-4.97661 -0.83988,0 -1.52706,-1.49298 -1.52706,-3.31774 0,-1.82476 -0.65032,-3.31774 -1.44516,-3.31774 -0.79484,0 -1.93622,-3.70178 -2.5364,-8.22618 -0.60018,-4.52439 -1.81609,-8.67415 -2.70202,-9.22169 -2.125,-1.31332 -2.125,-46.73447 0,-48.0478 0.88593,-0.54753 2.10184,-4.69729 2.70202,-9.22168 0.60018,-4.5244 1.74156,-8.22618 2.5364,-8.22618 0.79484,0 1.44516,-1.49298 1.44516,-3.31774 0,-1.82476 0.68718,-3.31774 1.52706,-3.31774 0.83989,0 2.01894,-2.23948 2.62011,-4.97661 0.60118,-2.73714 1.78023,-4.97661 2.62011,-4.97661 0.83989,0 1.52707,-0.72467 1.52707,-1.61037 0,-1.92246 10.23172,-17.2232 12.05643,-18.02948 1.18055,-0.52163 2.18006,-1.52341 7.24277,-7.25923 1.03459,-1.17214 4.26391,-3.99739 7.17627,-6.27833 2.91237,-2.28095 6.84568,-5.45354 8.7407,-7.0502 1.89503,-1.59667 4.45101,-2.90303 5.67998,-2.90303 1.22896,0 2.23448,-0.74649 2.23448,-1.65887 0,-0.91238 1.11974,-1.65887 2.48831,-1.65887 1.36857,0 2.4883,-0.66341 2.4883,-1.47425 0,-0.81084 2.61273,-1.9644 5.80605,-2.56347 3.19333,-0.59908 5.80605,-1.80189 5.80605,-2.67293 0,-0.87103 1.8902,-1.5837 4.20046,-1.5837 2.31025,0 6.88036,-1.11974 10.15581,-2.48831 3.27544,-1.36856 10.67232,-2.4883 16.43752,-2.4883 5.76519,0 10.94352,-0.74649 11.50741,-1.65887 1.42075,-2.29883 816.40236,-2.29883 817.82316,0 0.5639,0.91238 5.8573,1.65887 11.7633,1.65887 5.9059,0 13.4179,1.11974 16.6934,2.4883 3.2754,1.36857 7.7304,2.48831 9.8999,2.48831 2.1695,0 3.9446,0.66341 3.9446,1.47425 0,0.81084 2.6127,1.96441 5.806,2.56348 3.1934,0.59907 5.8061,1.80188 5.8061,2.67292 0,0.87104 1.1197,1.5837 2.4883,1.5837 1.3686,0 2.4883,0.74649 2.4883,1.65887 0,0.91238 1.0036,1.65887 2.2303,1.65887 1.2266,0 4.3992,1.86532 7.0502,4.14515 2.6509,2.27984 5.3153,4.14607 5.9207,4.14718 1.3856,0.002 19.6344,18.32029 19.6371,19.71135 0,0.56461 1.8673,3.19552 4.1472,5.84647 2.2798,2.65095 4.1451,5.82354 4.1451,7.0502 0,1.22666 0.7465,2.23029 1.6589,2.23029 0.9124,0 1.6589,1.11973 1.6589,2.4883 0,1.36857 0.7126,2.48831 1.5837,2.48831 0.871,0 2.0738,2.61272 2.6729,5.80605 0.5991,3.19332 1.7526,5.80604 2.5635,5.80604 0.8108,0 1.4742,1.89021 1.4742,4.20046 0,2.31025 1.1198,6.88037 2.4883,10.15581 3.4761,8.3195 3.4761,45.91148 0,54.23099 -1.3685,3.27544 -2.4883,7.84556 -2.4883,10.15581 0,2.31025 -0.6634,4.20046 -1.4742,4.20046 -0.8109,0 -1.9644,2.61272 -2.5635,5.80604 -0.5991,3.19333 -1.8019,5.80605 -2.6729,5.80605 -0.8711,0 -1.5837,1.11974 -1.5837,2.48831 0,1.36856 -0.7465,2.4883 -1.6589,2.4883 -0.9124,0 -1.6589,1.00364 -1.6589,2.23029 0,1.22665 -1.8653,4.39924 -4.1451,7.0502 -2.2799,2.65095 -4.1461,5.28186 -4.1472,5.84647 0,1.39106 -18.2515,19.70879 -19.6371,19.71135 -0.6054,10e-4 -3.2698,1.86734 -5.9207,4.14717 -2.651,2.27984 -5.8236,4.14516 -7.0502,4.14516 -1.2267,0 -2.2303,0.74649 -2.2303,1.65887 0,0.91237 -1.1197,1.65887 -2.4883,1.65887 -1.3686,0 -2.4883,0.71266 -2.4883,1.5837 0,0.87103 -2.6127,2.07386 -5.8061,2.67292 -3.1933,0.59907 -5.806,1.75263 -5.806,2.56347 0,0.81084 -2.0902,1.47426 -4.6448,1.47426 -2.5547,0 -5.5243,0.87945 -6.5992,1.95435 -1.0749,1.07488 -8.3302,2.28897 -16.1228,2.69798 -7.7926,0.40902 -14.5714,1.39579 -15.064,2.19283 -1.1814,1.91149 -816.38261,1.91149 -817.56397,0 z"
         id="path54497" />
      <path
         style="opacity:0.914;fill:#008080;stroke-width:4.97661;stroke-linecap:round;stroke-linejoin:round"
         d="m 448.72447,407.25271 c 0,-0.95846 -5.25309,-1.65887 -12.44153,-1.65887 -6.84284,0 -12.44153,-0.67644 -12.44153,-1.5032 0,-0.82677 -3.91908,-2.03685 -8.70907,-2.68908 -4.78999,-0.65224 -9.08231,-1.69429 -9.5385,-2.31569 -1.13818,-1.55036 -12.51905,-6.763 -14.76582,-6.763 -1.00259,0 -1.82289,-0.74649 -1.82289,-1.65887 0,-0.91238 -0.7963,-1.65887 -1.76955,-1.65887 -6.36213,0 -41.36108,-34.99895 -41.36108,-41.36108 0,-0.97326 -0.74649,-1.76955 -1.65887,-1.76955 -0.91238,0 -1.65887,-0.8203 -1.65887,-1.82288 0,-2.24678 -5.21264,-13.62765 -6.763,-14.76583 -0.62139,-0.45618 -1.66345,-4.74851 -2.31568,-9.5385 -0.65223,-4.78999 -1.86232,-8.70907 -2.68908,-8.70907 -2.1116,0 -1.92077,-45.36726 0.19975,-47.48778 0.93663,-0.93663 2.16034,-5.56488 2.71937,-10.285 0.55903,-4.72012 1.65893,-8.58204 2.44422,-8.58204 0.78529,0 1.42781,-1.11974 1.42781,-2.48831 0,-1.36857 0.68718,-2.4883 1.52706,-2.4883 0.83989,0 2.01894,-2.23948 2.62011,-4.97661 0.60118,-2.73714 1.78023,-4.97662 2.62011,-4.97662 0.83989,0 1.52707,-1.49298 1.52707,-3.31774 0,-1.82475 0.68561,-3.31774 1.52357,-3.31774 0.83797,0 3.10555,-2.55968 5.03908,-5.68819 3.89555,-6.30314 21.19502,-24.17148 23.40193,-24.17148 0.77173,0 3.23902,-1.83587 5.48287,-4.07971 2.24384,-2.24384 6.01023,-4.56424 8.36975,-5.15645 2.35953,-0.5922 4.29004,-1.74229 4.29004,-2.55576 0,-0.81347 1.35031,-1.47904 3.00069,-1.47904 1.65037,0 4.44971,-1.096 6.22076,-2.43555 1.77105,-1.33955 5.21073,-2.45929 7.64374,-2.4883 2.43301,-0.029 4.70071,-0.88394 5.03934,-1.89983 0.36334,-1.09001 6.89809,-2.20528 15.94343,-2.72102 8.43026,-0.48067 15.72438,-1.51572 16.20916,-2.30011 1.15477,-1.86846 816.38074,-1.86846 817.53554,0 0.4847,0.78439 7.6794,1.81377 15.9881,2.28751 8.3087,0.47374 15.9436,1.6982 16.9664,2.72102 1.0228,1.02282 3.5326,1.85967 5.5772,1.85967 2.0446,0 4.1433,0.68906 4.6638,1.53124 0.5205,0.84218 3.1773,2.02123 5.904,2.62011 2.7267,0.59888 4.9576,1.69512 4.9576,2.4361 0,0.74098 1.9305,1.83176 4.29,2.42396 2.3595,0.59221 6.1259,2.91261 8.3698,5.15645 2.2438,2.24384 4.8064,4.07971 5.6947,4.07971 2.2849,0 22.9153,21.63349 24.0551,25.22479 0.5195,1.63681 1.6058,2.97601 2.4138,2.97601 0.8081,0 2.7718,2.79935 4.3637,6.22077 1.592,3.42142 3.3926,6.59401 4.0014,7.0502 0.6089,0.45619 1.6815,2.69566 2.3836,4.97661 0.7022,2.28094 1.7624,4.52042 2.3562,4.97661 4.574,3.51422 9.1341,62.33407 5.2,67.0743 -0.9602,1.15695 -2.2215,5.57407 -2.8029,9.81582 -0.5813,4.24175 -1.6682,7.71227 -2.4153,7.71227 -0.747,0 -1.8483,2.61273 -2.4474,5.80605 -0.5991,3.19333 -1.7526,5.80605 -2.5635,5.80605 -0.8108,0 -1.4742,1.11974 -1.4742,2.4883 0,1.36857 -0.7465,2.48831 -1.6589,2.48831 -0.9124,0 -1.6589,0.9577 -1.6589,2.12821 0,2.64381 -5.1157,9.32823 -15.2715,19.95439 -4.2936,4.49249 -8.026,8.64005 -8.2943,9.21677 -0.7822,1.6816 -16.1848,11.83126 -17.9544,11.83126 -0.8857,0 -1.6104,0.68719 -1.6104,1.52706 0,0.83989 -2.2395,2.01894 -4.9766,2.62012 -2.7372,0.60117 -4.9766,1.78023 -4.9766,2.62012 0,0.83987 -1.493,1.52706 -3.3178,1.52706 -1.8247,0 -3.3177,0.65032 -3.3177,1.44515 0,0.79483 -3.7018,1.93622 -8.2262,2.5364 -4.5244,0.60018 -8.6741,1.8161 -9.2217,2.70202 -0.5475,0.88593 -6.1328,1.61078 -12.4118,1.61078 -6.2789,0 -11.8776,0.74649 -12.4415,1.65887 -0.679,1.09863 -138.8094,1.65887 -409.00949,1.65887 -270.88359,0 -407.98424,-0.55745 -407.98424,-1.65887 z"
         id="path54499" />
      <path
         style="opacity:0.914;fill:#008080;stroke-width:4.97661;stroke-linecap:round;stroke-linejoin:round"
         d="m 97.903082,403.98306 c -0.547534,-0.88592 -4.697295,-2.10184 -9.22169,-2.70202 -4.524395,-0.60018 -8.226173,-1.74157 -8.226173,-2.5364 0,-0.79483 -1.492983,-1.44515 -3.317741,-1.44515 -1.824757,0 -3.317741,-0.68719 -3.317741,-1.52706 0,-0.83989 -2.239475,-2.01895 -4.976611,-2.62012 -2.737137,-0.60118 -4.976612,-1.78023 -4.976612,-2.62012 0,-0.83987 -0.724667,-1.52706 -1.610371,-1.52706 -1.769667,0 -17.172195,-10.14966 -17.954414,-11.83126 -0.268274,-0.57672 -4.000733,-4.72428 -8.294352,-9.21677 -10.15577,-10.62616 -15.271496,-17.31058 -15.271496,-19.95439 0,-1.17051 -0.746491,-2.12821 -1.65887,-2.12821 -0.912379,0 -1.658871,-1.11974 -1.658871,-2.48831 0,-1.36856 -0.663414,-2.4883 -1.474253,-2.4883 -0.810839,0 -1.964403,-2.61272 -2.563474,-5.80605 -0.599072,-3.19332 -1.700421,-5.80605 -2.447443,-5.80605 -0.747022,0 -1.8339099,-3.47052 -2.4153067,-7.71227 -0.5813967,-4.24175 -1.8426869,-8.65887 -2.802867,-9.81582 -3.9340466,-4.74023 0.6260192,-63.56008 5.2000007,-67.0743 0.593759,-0.45619 1.654034,-2.69567 2.356167,-4.97661 0.702133,-2.28095 1.774755,-4.52042 2.383605,-4.97661 0.608851,-0.45619 2.409491,-3.62878 4.001422,-7.0502 1.591931,-3.42142 3.555584,-6.22077 4.363674,-6.22077 0.808089,0 1.894299,-1.3392 2.413801,-2.97601 1.139835,-3.5913 21.770244,-25.22479 24.05519,-25.22479 0.888227,0 3.450831,-1.83587 5.694673,-4.07971 2.243843,-2.24384 6.010233,-4.56425 8.369755,-5.15645 2.359523,-0.5922 4.290042,-1.68298 4.290042,-2.42396 0,-0.74098 2.230915,-1.83722 4.957587,-2.4361 2.726674,-0.59888 5.383452,-1.77793 5.903949,-2.62011 0.520499,-0.84218 2.619235,-1.53124 4.663861,-1.53124 2.044626,0 4.650615,-0.93312 5.791089,-2.07359 2.947519,-2.94752 60.587218,-2.94752 63.534738,0 1.14048,1.14047 3.74646,2.07359 5.79109,2.07359 2.04463,0 4.14336,0.68906 4.66386,1.53124 0.5205,0.84218 3.17727,2.02123 5.90395,2.62011 2.72667,0.59888 4.95759,1.71674 4.95759,2.48413 0,0.76739 2.39159,1.92054 5.31467,2.56256 2.92306,0.64201 6.7097,2.9408 8.41475,5.10841 1.70504,2.16762 3.77568,3.94112 4.60141,3.94112 1.92988,0 17.47119,15.54896 24.09088,24.10274 2.80341,3.6225 6.15823,9.01247 7.45515,11.9777 1.2969,2.96523 2.86298,5.39133 3.48014,5.39133 0.61715,0 1.61398,2.23947 2.21516,4.97661 0.60117,2.73713 1.78023,4.97661 2.62012,4.97661 0.83987,0 1.52706,2.09018 1.52706,4.64484 0,2.55466 0.93311,5.57795 2.07358,6.71842 1.50626,1.50626 2.07359,10.29606 2.07359,32.12679 0,22.56802 -0.51645,30.22536 -2.07359,30.7444 -1.14047,0.38016 -2.07358,2.86847 -2.07358,5.52957 0,2.66111 -0.66342,4.83837 -1.47426,4.83837 -0.81084,0 -1.9644,2.61273 -2.56347,5.80605 -0.59907,3.19333 -1.8019,5.80605 -2.67292,5.80605 -0.87104,0 -1.58371,1.11974 -1.58371,2.4883 0,1.36857 -0.74649,2.48831 -1.65887,2.48831 -0.91238,0 -1.65887,1.00552 -1.65887,2.23448 0,1.22896 -1.49298,3.95591 -3.31774,6.05987 -1.82476,2.10396 -3.32194,4.27105 -3.32706,4.81572 -0.0194,2.05541 -18.18637,19.76468 -23.89462,23.29258 -3.27566,2.02445 -5.95573,4.36645 -5.95573,5.20441 0,0.83796 -1.49298,1.52357 -3.31774,1.52357 -1.82476,0 -3.31774,0.68719 -3.31774,1.52706 0,0.83989 -2.23948,2.01894 -4.97661,2.62012 -2.73714,0.60117 -4.97661,1.78023 -4.97661,2.62012 0,0.83987 -1.49299,1.52706 -3.31774,1.52706 -1.82476,0 -3.31775,0.65032 -3.31775,1.44515 0,0.79483 -3.70177,1.93622 -8.22617,2.5364 -4.52439,0.60018 -8.67415,1.8161 -9.22169,2.70202 -0.56651,0.91662 -10.91941,1.61078 -24.0239,1.61078 -13.10449,0 -23.457391,-0.69416 -24.023898,-1.61078 z"
         id="path54501" />
      <path
         style="opacity:0.914;fill:#008080;stroke-width:4.97661;stroke-linecap:round;stroke-linejoin:round"
         d="m 96.214489,810.90598 c -1.824757,-0.47838 -4.026908,-1.54381 -4.893668,-2.36762 -0.86676,-0.82383 -3.666104,-1.49786 -6.220764,-1.49786 -2.554661,0 -4.644838,-0.66342 -4.644838,-1.47426 0,-0.81084 -2.612721,-1.9644 -5.806046,-2.56347 -3.193326,-0.59906 -5.806047,-1.80189 -5.806047,-2.67292 0,-0.87104 -1.119738,-1.5837 -2.488306,-1.5837 -1.368568,0 -2.488306,-0.7465 -2.488306,-1.65887 0,-0.91238 -1.003628,-1.65887 -2.230286,-1.65887 -1.226657,0 -4.399247,-1.86532 -7.0502,-4.14516 -2.650951,-2.27983 -5.315287,-4.14606 -5.920744,-4.14717 -1.385617,-0.003 -19.63433,-18.32029 -19.637076,-19.71135 -0.0011,-0.56461 -1.867344,-3.19552 -4.147176,-5.84647 -2.279834,-2.65096 -4.145151,-5.82355 -4.145151,-7.0502 0,-1.22665 -0.746491,-2.23029 -1.65887,-2.23029 -0.912379,0 -1.658871,-1.11974 -1.658871,-2.4883 0,-1.36857 -0.712666,-2.48831 -1.583702,-2.48831 -0.871036,0 -2.073851,-2.61272 -2.672923,-5.80605 -0.599071,-3.19332 -1.752635,-5.80604 -2.563474,-5.80604 -0.8108392,0 -1.4742532,-1.89021 -1.4742532,-4.20046 0,-2.31025 -1.1197376,-6.88037 -2.4883058,-10.15581 -3.4761114,-8.31951 -3.4761114,-45.91149 0,-54.23099 1.3685682,-3.27544 2.4883058,-7.84556 2.4883058,-10.15581 0,-2.31025 0.663414,-4.20046 1.4742532,-4.20046 0.810839,0 1.964403,-2.61272 2.563474,-5.80604 0.599072,-3.19333 1.801887,-5.80605 2.672923,-5.80605 0.871036,0 1.583702,-1.11974 1.583702,-2.48831 0,-1.36857 0.746492,-2.4883 1.658871,-2.4883 0.912379,0 1.65887,-1.00363 1.65887,-2.23029 0,-1.22666 1.865317,-4.39925 4.145151,-7.0502 2.279832,-2.65095 4.146062,-5.28186 4.147176,-5.84647 0.0028,-1.39106 18.251459,-19.7088 19.637076,-19.71135 0.605457,-10e-4 3.269793,-1.86734 5.920744,-4.14718 2.650953,-2.27983 5.823543,-4.14515 7.0502,-4.14515 1.226658,0 2.230286,-0.74649 2.230286,-1.65887 0,-0.91238 1.119738,-1.65887 2.488306,-1.65887 1.368568,0 2.488306,-0.71266 2.488306,-1.5837 0,-0.87104 2.612721,-2.07385 5.806047,-2.67292 3.193325,-0.59907 5.806046,-1.75264 5.806046,-2.56348 0,-0.81084 1.775065,-1.47425 3.944589,-1.47425 2.169524,0 6.624497,-1.11974 9.899941,-2.48831 8.337091,-3.48345 46.917371,-3.48345 55.254461,0 3.27545,1.36857 7.68637,2.48831 9.80204,2.48831 2.11568,0 4.27255,0.68906 4.79305,1.53124 0.5205,0.84219 3.17727,2.02124 5.90395,2.62012 2.72667,0.59887 4.95759,1.77604 4.95759,2.61593 0,0.83988 1.11974,1.52706 2.4883,1.52706 1.36857,0 2.48831,0.74649 2.48831,1.65887 0,0.91238 1.45589,1.65887 3.23531,1.65887 1.77942,0 3.83227,0.95104 4.56189,2.11342 0.72963,1.16237 3.47058,3.47878 6.09101,5.14756 5.15985,3.28596 22.60694,20.72995 22.60694,22.60292 0,0.63085 1.49298,2.86842 3.31774,4.97238 1.82476,2.10397 3.31774,4.83091 3.31774,6.05988 0,1.22896 0.74649,2.23448 1.65887,2.23448 0.91238,0 1.65887,1.11973 1.65887,2.4883 0,1.36857 0.68719,2.48831 1.52706,2.48831 0.83989,0 2.01707,2.23091 2.61594,4.95759 0.59888,2.72667 1.77793,5.38345 2.62012,5.90394 0.84217,0.5205 1.53124,3.07958 1.53124,5.68684 0,2.60725 0.93311,5.0515 2.07358,5.43166 1.55833,0.51945 2.07359,8.24828 2.07359,31.10382 0,22.85555 -0.51526,30.58438 -2.07359,31.10383 -1.14047,0.38015 -2.07358,2.8244 -2.07358,5.43166 0,2.60726 -0.68907,5.16634 -1.53124,5.68683 -0.84219,0.5205 -2.02124,3.17728 -2.62012,5.90396 -0.59887,2.72667 -1.77605,4.95758 -2.61594,4.95758 -0.83987,0 -1.52706,1.11974 -1.52706,2.48831 0,1.36856 -0.74649,2.4883 -1.65887,2.4883 -0.91238,0 -1.65887,1.00553 -1.65887,2.23448 0,1.22896 -1.49298,3.95591 -3.31774,6.05987 -1.82476,2.10397 -3.31774,4.34153 -3.31774,4.97239 0,1.87298 -17.44709,19.31696 -22.60694,22.60292 -2.62043,1.66879 -5.36138,3.98519 -6.09101,5.14756 -0.72962,1.16238 -2.78247,2.11342 -4.56189,2.11342 -1.77942,0 -3.23531,0.74649 -3.23531,1.65887 0,0.91237 -1.11974,1.65887 -2.48831,1.65887 -1.36856,0 -2.4883,0.68718 -2.4883,1.52705 0,0.83989 -2.23092,2.01707 -4.95759,2.61594 -2.72668,0.59889 -5.38345,1.77793 -5.90395,2.62012 -0.5205,0.84218 -2.99248,1.53124 -5.49329,1.53124 -2.50082,0 -5.47872,0.93311 -6.61757,2.07359 -2.12051,2.12353 -48.83863,3.62314 -55.823951,1.79189 z"
         id="path54503" />
      <path
         style="opacity:0.914;fill:#008080;stroke-width:4.97661;stroke-linecap:round;stroke-linejoin:round"
         d="m 95.385054,1217.3276 c -2.280947,-0.4549 -4.856344,-1.5103 -5.723103,-2.3454 -0.86676,-0.8351 -3.248802,-1.5184 -5.293428,-1.5184 -2.044626,0 -4.143362,-0.6891 -4.663861,-1.5313 -0.520497,-0.8422 -3.177275,-2.0212 -5.903949,-2.6201 -2.726672,-0.5989 -4.957587,-1.6951 -4.957587,-2.4361 0,-0.741 -1.930519,-1.8317 -4.290042,-2.4239 -2.359522,-0.5922 -6.125912,-2.9126 -8.369755,-5.1565 -2.243842,-2.2438 -4.810279,-4.0797 -5.703193,-4.0797 -2.371229,0 -22.816057,-21.3475 -23.991388,-25.0506 -0.549906,-1.7326 -1.660994,-3.1502 -2.469083,-3.1502 -0.80809,0 -2.771743,-2.7993 -4.363674,-6.2208 -1.591931,-3.4214 -3.392571,-6.594 -4.001422,-7.0502 -0.60885,-0.4562 -1.681472,-2.6956 -2.383605,-4.9766 -0.702133,-2.2809 -1.762408,-4.5204 -2.356167,-4.9766 -4.5739815,-3.5142 -9.1340473,-62.3341 -5.2000007,-67.0743 0.9601801,-1.1569 2.2214703,-5.5741 2.802867,-9.8158 0.5813968,-4.2418 1.6682847,-7.7123 2.4153067,-7.7123 0.747022,0 1.848371,-2.6127 2.447443,-5.806 0.599071,-3.1934 1.752635,-5.8061 2.563474,-5.8061 0.810839,0 1.474253,-1.1197 1.474253,-2.4883 0,-1.3686 0.746492,-2.4883 1.658871,-2.4883 0.912379,0 1.65887,-0.9577 1.65887,-2.1282 0,-2.6438 5.115726,-9.3282 15.271496,-19.9544 4.293619,-4.4925 8.026078,-8.64 8.294352,-9.2168 0.782219,-1.6816 16.184747,-11.83122 17.954414,-11.83122 0.885704,0 1.610371,-0.68718 1.610371,-1.52707 0,-0.83988 2.239475,-2.01893 4.976612,-2.62011 2.737136,-0.60118 4.976611,-1.78023 4.976611,-2.62011 0,-0.83989 1.492984,-1.52707 3.317741,-1.52707 1.824758,0 3.317741,-0.65032 3.317741,-1.44515 0,-0.79484 3.701778,-1.93622 8.226173,-2.5364 4.524395,-0.60018 8.674156,-1.81609 9.22169,-2.70202 1.313322,-2.125 46.734478,-2.125 48.047798,0 0.54754,0.88593 4.6973,2.10184 9.22169,2.70202 4.5244,0.60018 8.22617,1.74156 8.22617,2.5364 0,0.79483 1.49299,1.44515 3.31775,1.44515 1.82475,0 3.31774,0.68718 3.31774,1.52707 0,0.83988 2.23947,2.01893 4.97661,2.62011 2.73713,0.60118 4.97661,1.78023 4.97661,2.62011 0,0.83989 1.49298,1.52707 3.31774,1.52707 1.82476,0 3.31774,0.68562 3.31774,1.52362 0,0.8379 2.67075,3.1741 5.93498,5.1915 5.74287,3.5493 12.30503,9.805 20.31801,19.3689 8.48135,10.1231 10.24216,12.6695 10.24216,14.8121 0,1.229 0.74649,2.2345 1.65887,2.2345 0.91238,0 1.65887,1.1197 1.65887,2.4883 0,1.3686 0.66342,2.4883 1.47426,2.4883 0.81084,0 1.9644,2.6127 2.56347,5.8061 0.59907,3.1933 1.8019,5.806 2.67292,5.806 0.87104,0 1.58371,2.1773 1.58371,4.8384 0,2.6611 0.93311,5.1494 2.07358,5.5296 1.55714,0.519 2.07359,8.1763 2.07359,30.7444 0,21.8307 -0.56733,30.6205 -2.07359,32.1267 -1.14047,1.1405 -2.07358,4.1638 -2.07358,6.7185 0,2.5546 -0.68719,4.6448 -1.52706,4.6448 -0.83989,0 -2.01895,2.2395 -2.62012,4.9766 -0.60118,2.7372 -1.59801,4.9766 -2.21516,4.9766 -0.61716,0 -2.18324,2.4261 -3.48014,5.3914 -1.29692,2.9652 -4.65174,8.3552 -7.45515,11.9777 -6.61969,8.5537 -22.161,24.1027 -24.09088,24.1027 -0.82573,0 -2.89637,1.7735 -4.60141,3.9411 -1.70505,2.1676 -5.49169,4.4664 -8.41475,5.1084 -2.92308,0.642 -5.31467,1.7952 -5.31467,2.5626 0,0.7674 -2.23092,1.8852 -4.95759,2.4841 -2.72668,0.5989 -5.38345,1.7779 -5.90395,2.6201 -0.5205,0.8422 -2.61923,1.5313 -4.66386,1.5313 -2.04463,0 -4.65039,0.9331 -5.79059,2.0736 -2.11149,2.112 -49.41352,3.5642 -58.309796,1.7902 z"
         id="path54505" />
    </g>
  </g>
</svg>
