<?xml version="1.0" encoding="UTF-8" standalone="no"?>
<!-- Created with Inkscape (http://www.inkscape.org/) -->

<svg
   version="1.1"
   id="svg24999"
   width="150"
   height="150"
   viewBox="0 0 150 150"
   sodipodi:docname="modifier.svg"
   inkscape:version="1.2.1 (9c6d41e410, 2022-07-14)"
   xmlns:inkscape="http://www.inkscape.org/namespaces/inkscape"
   xmlns:sodipodi="http://sodipodi.sourceforge.net/DTD/sodipodi-0.dtd"
   xmlns="http://www.w3.org/2000/svg"
   xmlns:svg="http://www.w3.org/2000/svg">
  <defs
     id="defs25003" />
  <sodipodi:namedview
     id="namedview25001"
     pagecolor="#ffffff"
     bordercolor="#000000"
     borderopacity="0.25"
     inkscape:showpageshadow="2"
     inkscape:pageopacity="0.0"
     inkscape:pagecheckerboard="0"
     inkscape:deskcolor="#d1d1d1"
     showgrid="false"
     inkscape:zoom="5.58"
     inkscape:cx="61.648746"
     inkscape:cy="75.089606"
     inkscape:window-width="1920"
     inkscape:window-height="1017"
     inkscape:window-x="-8"
     inkscape:window-y="-8"
     inkscape:window-maximized="1"
     inkscape:current-layer="g25005" />
  <g
     inkscape:groupmode="layer"
     inkscape:label="Image"
     id="g25005"
     transform="translate(-6.2779116,-12.81134)">
    <g
       id="g27290"
       transform="translate(-0.53763225,-1.6788315)">
      <path
         style="opacity:0.914;fill:#ffffff;stroke-width:0.587634;stroke-linecap:round;stroke-linejoin:round"
         d="m 7.2580645,142.41544 c 0,-0.33482 0.4180932,-1.74171 0.7550888,-2.54089 0.1039083,-0.24641 0.2453485,-0.60932 0.3143116,-0.80645 0.6977908,-1.99465 0.9585297,-2.76846 1.0869455,-3.22581 0.2320693,-0.82649 1.4183926,-4.23465 1.6842746,-4.83871 0.130155,-0.29569 0.380881,-1.0215 0.557168,-1.6129 0.176287,-0.5914 0.378622,-1.15591 0.449633,-1.25448 0.07101,-0.0986 0.189001,-0.45882 0.262199,-0.80057 0.0732,-0.34175 0.194069,-0.74497 0.268602,-0.89606 0.322427,-0.65358 0.543864,-1.26771 1.00371,-2.78366 0.269092,-0.88709 0.54683,-1.69354 0.617198,-1.79211 0.07037,-0.0986 0.18783,-0.45882 0.261028,-0.80057 0.0732,-0.34175 0.197591,-0.74497 0.276429,-0.89606 0.182402,-0.34955 0.35203,-0.80755 0.632731,-1.70839 0.439901,-1.41175 0.820269,-2.51354 0.960992,-2.78366 0.07871,-0.15108 0.203942,-0.55166 0.278292,-0.89017 0.127713,-0.58148 0.190903,-0.74372 0.62724,-1.61048 0.09857,-0.19579 0.179211,-0.47329 0.179211,-0.61666 0,-0.70307 0.602247,-0.27034 3.279171,2.35613 3.266121,3.20457 12.253612,11.88269 15.828035,15.28319 1.295094,1.23208 2.364493,2.29909 2.376443,2.37114 0.01195,0.072 -0.200047,0.18397 -0.471104,0.24873 -0.271057,0.0648 -0.573477,0.17474 -0.672043,0.24442 -0.09857,0.0697 -0.582437,0.23029 -1.075269,0.35691 -0.837627,0.21521 -3.135077,0.94484 -3.942652,1.25211 -0.197133,0.075 -1.084229,0.35665 -1.971326,0.62586 -0.887097,0.26922 -1.774194,0.55735 -1.971326,0.6403 -0.197133,0.083 -0.640681,0.23577 -0.985663,0.3396 -1.9394,0.58372 -7.499826,2.35403 -7.974911,2.53903 -0.197132,0.0768 -0.640681,0.22674 -0.985663,0.33328 -0.344982,0.10654 -1.957885,0.62446 -3.584229,1.15093 -5.4566181,1.7664 -7.6288228,2.4425 -7.8473871,2.4425 -0.1194211,0 -0.2171294,-0.14693 -0.2171294,-0.3265 z"
         id="path27278"
         transform="translate(6.2779116,12.81134)" />
      <path
         style="opacity:0.914;fill:#ffffff;stroke-width:0.587634;stroke-linecap:round;stroke-linejoin:round"
         d="m 45.250896,125.12724 c -1.330645,-1.30804 -4.758064,-4.63718 -7.616487,-7.39808 -2.858423,-2.76091 -7.314068,-7.06479 -9.901434,-9.56417 -2.587366,-2.49939 -4.704301,-4.60599 -4.704301,-4.68134 0,-0.0753 0.517529,-0.60773 1.150065,-1.18308 0.632536,-0.57535 4.644832,-4.433186 8.916213,-8.572971 6.789186,-6.580018 22.17289,-21.446635 45.661455,-44.126648 4.2525,-4.106116 6.975075,-6.608543 7.107908,-6.533164 0.25197,0.142985 15.683155,15.0059 21.035325,20.260681 l 3.67384,3.606982 -1.54296,1.478512 c -0.84863,0.813181 -7.38057,7.123672 -14.51543,14.023314 -39.948681,38.631684 -46.63437,45.073514 -46.776052,45.069954 -0.03783,-9.5e-4 -1.157497,-1.07195 -2.488142,-2.37999 z"
         id="path27280"
         transform="translate(6.2779116,12.81134)" />
      <path
         style="opacity:0.914;fill:#ffffff;stroke-width:0.587634;stroke-linecap:round;stroke-linejoin:round"
         d="M 115.25523,57.834088 C 114.0602,56.672407 108.54246,51.338247 102.99361,45.9804 97.44475,40.622553 92.928621,36.149632 92.957765,36.040577 c 0.02914,-0.109056 1.267378,-1.387042 2.751632,-2.839968 l 2.698644,-2.641686 2.856909,2.720901 c 1.5713,1.496495 6.28433,6.035553 10.4734,10.086794 4.18907,4.051241 8.48675,8.202409 9.55041,9.224817 1.06365,1.022411 1.91016,1.946305 1.88113,2.053101 -0.0899,0.330573 -5.24973,5.301701 -5.50298,5.301701 -0.13139,0 -1.21664,-0.950466 -2.41168,-2.112149 z"
         id="path27282"
         transform="translate(6.2779116,12.81134)" />
      <path
         style="opacity:0.914;fill:#ffffff;stroke-width:0.587634;stroke-linecap:round;stroke-linejoin:round"
         d="m 121.04494,38.845052 c -5.0798,-4.904204 -10.66715,-10.293484 -12.41633,-11.976175 l -3.18033,-3.059439 2.02497,-1.947613 c 1.11373,-1.071186 4.18624,-4.039772 6.82781,-6.596857 l 4.80285,-4.649245 1.55916,1.50545 c 13.91674,13.437368 23.15413,22.437856 23.15413,22.560325 0,0.150807 -13.16272,12.945715 -13.40922,13.034522 -0.0699,0.02517 -4.28324,-3.966762 -9.36304,-8.870968 z"
         id="path27284"
         transform="translate(6.2779116,12.81134)" />
    </g>
  </g>
</svg>
