<?xml version="1.0" encoding="UTF-8" standalone="no"?>
<!-- Created with Inkscape (http://www.inkscape.org/) -->

<svg
   version="1.1"
   id="svg57067"
   width="100"
   height="80.622009"
   viewBox="0 0 100.00001 80.622015"
   sodipodi:docname="playlist_white.svg"
   inkscape:version="1.2.1 (9c6d41e410, 2022-07-14)"
   xmlns:inkscape="http://www.inkscape.org/namespaces/inkscape"
   xmlns:sodipodi="http://sodipodi.sourceforge.net/DTD/sodipodi-0.dtd"
   xmlns="http://www.w3.org/2000/svg"
   xmlns:svg="http://www.w3.org/2000/svg">
  <defs
     id="defs57071" />
  <sodipodi:namedview
     id="namedview57069"
     pagecolor="#ffffff"
     bordercolor="#000000"
     borderopacity="0.25"
     inkscape:showpageshadow="2"
     inkscape:pageopacity="0.0"
     inkscape:pagecheckerboard="0"
     inkscape:deskcolor="#d1d1d1"
     showgrid="false"
     inkscape:zoom="0.64709469"
     inkscape:cx="444.29355"
     inkscape:cy="397.1598"
     inkscape:window-width="1920"
     inkscape:window-height="1017"
     inkscape:window-x="-8"
     inkscape:window-y="-8"
     inkscape:window-maximized="1"
     inkscape:current-layer="g57073" />
  <g
     inkscape:groupmode="layer"
     inkscape:label="Image"
     id="g57073"
     transform="translate(0.77268444,-2.3180528)">
    <g
       id="g57586"
       transform="matrix(0.07740367,0,0,0.07740367,-0.83249305,-7.4307506)"
       style="fill:#ffffff;fill-opacity:0.9137255">
      <path
         style="opacity:0.914;fill:#ffffff;stroke-width:4.63611;stroke-linecap:round;stroke-linejoin:round;fill-opacity:0.9137255"
         d="M 308.30109,495.29073 V 125.94756 H 646.73688 985.17266 V 495.29073 864.63389 H 646.73688 308.30109 Z m 288.14242,236.97348 c 11.36106,-0.96037 12.06652,-1.23942 13.49541,-5.33834 1.40402,-4.02759 2.1632,-4.35643 11.03964,-4.78181 8.8448,-0.42386 9.57103,-0.7353 10.07409,-4.32021 0.71507,-5.09584 2.64096,-6.12949 11.4731,-6.15782 6.95564,-0.0222 7.43234,-0.28973 8.30635,-4.65977 0.68921,-3.446 1.79005,-4.6361 4.2884,-4.6361 4.31628,0 7.07007,-2.78905 7.07007,-7.16059 0,-2.6167 1.02805,-3.56999 4.24976,-3.94069 3.5784,-0.41174 4.32853,-1.31278 4.74835,-5.7036 0.32516,-3.40079 2.34092,-7.11162 5.79513,-10.6683 4.80601,-4.9486 5.29655,-6.29049 5.29655,-14.48884 0,-9.00882 0.0135,-9.03516 4.63611,-9.03516 h 4.63611 l 0.12192,-117.83437 c 0.0671,-64.80891 0.47276,-116.96511 0.90146,-115.90267 0.51035,1.26478 4.2163,1.93171 10.73383,1.93171 9.04251,0 10.08157,0.33456 11.34293,3.65219 0.7637,2.00868 3.00659,4.08544 4.9842,4.61499 1.97761,0.52956 30.44394,0.97233 63.25853,0.98394 l 59.66291,0.0212 0.99282,-9.4989 c 1.27406,-12.18959 1.29442,-68.96607 0.027,-75.30322 l -0.96584,-4.82935 h -39.79325 -39.79324 l -0.88706,-4.43526 c -1.0727,-5.36352 -3.98208,-6.33248 -19.1001,-6.36123 -10.95573,-0.0209 -11.10768,-0.0768 -11.59026,-4.27086 -0.42453,-3.68957 -1.2529,-4.31298 -6.28412,-4.7294 -3.7436,-0.30983 -5.79514,-1.25461 -5.79514,-2.66876 0,-1.20402 -1.65691,-3.27479 -3.68202,-4.6017 -2.02512,-1.3269 -4.09027,-4.45376 -4.58924,-6.94857 -0.63623,-3.18119 -2.07515,-4.82917 -4.8175,-5.51745 -3.33123,-0.83609 -3.91029,-1.85711 -3.91029,-6.89477 0,-9.08417 -2.3527,-13.84139 -6.84531,-13.84139 -3.65433,0 -3.85214,-0.4812 -4.28801,-10.43124 l -0.45695,-10.43124 h -44.04301 -44.04302 l -0.39612,116.28901 -0.39611,116.28901 h -40.20846 -40.20844 l -0.92722,4.63611 c -0.8869,4.43454 -1.27493,4.6361 -8.92451,4.6361 -8.75524,0 -11.70617,1.83094 -11.70617,7.26324 0,2.91903 -0.82867,3.55435 -4.6361,3.55435 -4.09875,0 -4.63611,0.52599 -4.63611,4.53819 0,3.99043 -0.60622,4.59665 -5.02245,5.02245 -4.41623,0.42581 -5.08089,1.09047 -5.5067,5.5067 -0.4258,4.41623 -1.03202,5.02245 -5.02245,5.02245 -4.15626,0 -4.5382,0.45521 -4.5382,5.40879 0,4.93508 -0.39156,5.40879 -4.47076,5.40879 -5.2852,0 -6.34682,2.08908 -6.34682,12.48935 0,6.28871 -0.48008,7.60045 -2.78166,7.60045 -6.20017,0 -6.49055,2.08798 -6.49055,46.67014 0,33.83653 0.4194,42.96125 1.97461,42.96125 3.73144,0 7.2976,6.10083 7.2976,12.48439 0,5.13359 0.9566,7.16979 5.28711,11.25398 3.63312,3.42647 5.44605,6.65728 5.79513,10.32747 0.43053,4.52627 1.15634,5.41567 4.75779,5.83006 3.22171,0.3707 4.24977,1.32399 4.24977,3.94069 0,4.37154 2.75378,7.16059 7.07006,7.16059 2.49835,0 3.5992,1.1901 4.2884,4.6361 0.83271,4.16357 1.52185,4.63826 6.76099,4.6572 9.52298,0.0345 12.56363,1.41258 13.0868,5.93141 0.44738,3.86412 0.99508,4.1176 9.81832,4.54433 8.72113,0.42179 9.45742,0.75106 11.03702,4.9359 1.53185,4.05834 2.47846,4.5384 9.97261,5.05733 15.59683,1.08003 42.58353,1.1452 54.57227,0.13182 z"
         id="path57557" />
      <path
         style="opacity:0.914;fill:#ffffff;stroke-width:4.63611;stroke-linecap:round;stroke-linejoin:round;fill-opacity:0.9137255"
         d="m 559.23713,631.77138 -7.91326,-0.63585 -0.97464,-7.11076 c -1.11212,-8.11383 -3.17555,-11.28601 -7.34129,-11.28601 -2.34707,0 -2.90152,-1.16249 -2.90152,-6.08356 0,-5.73393 0.28866,-6.1114 5.02245,-6.56782 4.15405,-0.40052 5.10544,-1.20287 5.50241,-4.6404 0.37093,-3.21203 1.42408,-4.26518 4.6361,-4.63611 3.43754,-0.39697 4.23989,-1.34836 4.64041,-5.50241 l 0.48425,-5.02244 h 20.76457 20.76457 v 16.22637 c 0,14.84339 -0.2473,16.22637 -2.90152,16.22637 -4.1748,0 -6.22958,3.17517 -7.35141,11.35983 -0.94029,6.8602 -1.20975,7.1846 -5.96781,7.1846 -2.74067,0 -8.03563,0.25291 -11.76655,0.56202 -3.73093,0.30911 -10.34447,0.27589 -14.69676,-0.0738 z"
         id="path57559" />
      <path
         style="opacity:0.914;fill:#ffffff;stroke-width:4.63611;stroke-linecap:round;stroke-linejoin:round;fill-opacity:0.9137255"
         d="m 1076.3494,495.29073 v -298.2562 h 30.1347 30.1347 v 298.2562 298.25619 h -30.1347 -30.1347 z"
         id="path57561" />
      <path
         style="opacity:0.914;fill:#ffffff;stroke-width:4.63611;stroke-linecap:round;stroke-linejoin:round;fill-opacity:0.9137255"
         d="M 1227.7956,495.29073 V 277.39371 h 32.4527 32.4528 v 217.89702 217.89701 h -32.4528 -32.4527 z"
         id="path57563" />
      <path
         style="opacity:0.914;fill:#ffffff;stroke-width:4.63611;stroke-linecap:round;stroke-linejoin:round;fill-opacity:0.9137255"
         d="m 542.81082,1164.3067 c -1.48742,-1.6291 -2.7044,-3.583 -2.7044,-4.342 0,-2.1567 -4.21694,-3.2561 -12.48934,-3.2561 -7.37826,0 -7.60045,-0.1327 -7.60045,-4.5382 0,-3.9904 -0.60622,-4.5966 -5.02245,-5.0224 -4.12561,-0.3978 -5.10673,-1.2117 -5.49445,-4.558 -0.36063,-3.1124 -1.5458,-4.2885 -5.02245,-4.9838 -3.04231,-0.6085 -4.55045,-1.8449 -4.55045,-3.7304 0,-3.5794 -2.91235,-6.5292 -6.44636,-6.5292 -1.79306,0 -3.18339,-1.7327 -4.03,-5.0224 -1.00284,-3.8969 -2.22496,-5.1321 -5.45297,-5.5115 -3.92478,-0.4613 -4.16046,-0.9471 -4.16046,-8.5768 0,-4.4483 -0.8345,-8.9223 -1.85444,-9.9422 -1.39682,-1.3968 -22.56239,-1.8545 -85.76798,-1.8545 h -83.91353 v -30.1347 -30.1347 h 79.35589 c 52.49633,0 80.96519,-0.561 84.11051,-1.6574 5.0429,-1.758 8.06955,-7.5358 8.06955,-15.4047 0,-3.211 0.91938,-4.4687 3.79411,-5.1902 3.66265,-0.9193 6.99089,-8.0502 7.01485,-15.02969 0.005,-1.5508 1.7817,-2.86584 4.64473,-3.43844 3.92514,-0.78503 4.6361,-1.64411 4.6361,-5.60197 0,-4.17466 0.50114,-4.67474 4.6846,-4.67474 3.04118,0 5.04387,-0.94874 5.70867,-2.70439 1.84232,-4.8653 5.12769,-6.95506 12.18477,-7.7505 6.10146,-0.68772 7.04976,-1.30531 7.80535,-5.08328 l 0.86009,-4.30045 18.76273,-0.7923 c 10.31949,-0.43576 19.45812,-0.81042 20.30808,-0.83259 0.84995,-0.0222 10.33889,0.34736 21.08654,0.82115 l 19.54116,0.86144 0.85433,4.2716 c 0.74894,3.74476 1.71092,4.36815 7.79958,5.05443 7.05708,0.79544 10.34246,2.8852 12.18477,7.7505 0.6648,1.75565 2.66749,2.70439 5.70867,2.70439 4.18347,0 4.6846,0.50008 4.6846,4.67474 0,3.92288 0.72136,4.81902 4.48508,5.57176 3.96396,0.79279 4.6092,1.73097 5.55342,8.07454 1.22656,8.2406 3.03999,11.041 7.14977,11.041 2.02399,0 2.90153,1.11 2.90153,3.6702 0,2.0187 0.4503,5.9218 1.00067,8.6737 1.98282,9.914 -19.492,9.2912 320.38642,9.2912 h 309.12344 v 30.1347 30.1347 H 979.89027 c -172.04595,0 -313.91081,0.4221 -315.25525,0.938 -1.84201,0.7069 -2.44445,3.1572 -2.44445,9.9423 0,8.674 -0.15585,9.0222 -4.24977,9.4932 -3.2799,0.3774 -4.58719,1.6352 -5.72837,5.5115 -0.86731,2.946 -2.4965,5.0224 -3.94069,5.0224 -3.28556,0 -6.17097,3.0529 -6.17097,6.5292 0,1.8748 -1.50024,3.1203 -4.47512,3.7153 -3.39124,0.6783 -4.69191,1.9789 -5.37016,5.3702 -0.75062,3.7531 -1.64928,4.4751 -5.56977,4.4751 -4.16391,0 -4.67474,0.5066 -4.67474,4.6361 0,4.5228 -0.18576,4.6361 -7.60045,4.6361 -8.27241,0 -12.48935,1.0994 -12.48935,3.2561 0,0.759 -1.39083,2.7708 -3.09074,4.4708 -2.84895,2.8489 -5.0553,3.0806 -28.20298,2.9619 -22.68203,-0.1164 -25.37395,-0.4154 -27.81664,-3.0907 z"
         id="path57565" />
      <path
         style="opacity:0.914;fill:#ffffff;stroke-width:4.63611;stroke-linecap:round;stroke-linejoin:round;fill-opacity:0.9137255"
         d="M 156.85494,1060.8957 V 954.26529 h 30.13469 30.1347 v 106.63041 106.6305 h -30.1347 -30.13469 z"
         id="path57567" />
      <path
         style="opacity:0.914;fill:#ffffff;stroke-width:4.63611;stroke-linecap:round;stroke-linejoin:round;fill-opacity:0.9137255"
         d="M 0.77268444,1060.8957 V 954.26529 H 33.225431 65.678178 v 106.63041 106.6305 H 33.225431 0.77268444 Z"
         id="path57569" />
      <path
         style="opacity:0.914;fill:#ffffff;stroke-width:4.63611;stroke-linecap:round;stroke-linejoin:round;fill-opacity:0.9137255"
         d="M 0.77268444,495.29073 V 277.39371 H 33.225431 65.678178 V 495.29073 713.18774 H 33.225431 0.77268444 Z"
         id="path57571" />
      <path
         style="opacity:0.914;fill:#ffffff;stroke-width:4.63611;stroke-linecap:round;stroke-linejoin:round;fill-opacity:0.9137255"
         d="m 156.85494,495.29073 v -298.2562 h 30.13469 30.1347 v 298.2562 298.25619 h -30.1347 -30.13469 z"
         id="path57575" />
    </g>
  </g>
</svg>
