<?xml version="1.0" encoding="UTF-8" standalone="no"?>
<!-- Created with Inkscape (http://www.inkscape.org/) -->

<svg
   version="1.1"
   id="svg21414"
   width="1730.7042"
   height="1730.7042"
   viewBox="0 0 1730.7042 1730.7042"
   sodipodi:docname="poubelle.svg"
   inkscape:version="1.2.1 (9c6d41e410, 2022-07-14)"
   xmlns:inkscape="http://www.inkscape.org/namespaces/inkscape"
   xmlns:sodipodi="http://sodipodi.sourceforge.net/DTD/sodipodi-0.dtd"
   xmlns="http://www.w3.org/2000/svg"
   xmlns:svg="http://www.w3.org/2000/svg">
  <defs
     id="defs21418" />
  <sodipodi:namedview
     id="namedview21416"
     pagecolor="#ffffff"
     bordercolor="#000000"
     borderopacity="0.25"
     inkscape:showpageshadow="2"
     inkscape:pageopacity="0.0"
     inkscape:pagecheckerboard="0"
     inkscape:deskcolor="#d1d1d1"
     showgrid="false"
     inkscape:zoom="0.48361816"
     inkscape:cx="713.37271"
     inkscape:cy="866.38599"
     inkscape:window-width="1920"
     inkscape:window-height="1017"
     inkscape:window-x="-8"
     inkscape:window-y="-8"
     inkscape:window-maximized="1"
     inkscape:current-layer="g21420" />
  <g
     inkscape:groupmode="layer"
     inkscape:label="Image"
     id="g21420">
    <path
       style="opacity:0.914;fill:#ffffff;stroke-width:6.78014;stroke-linecap:round;stroke-linejoin:round"
       d="m 223.31667,455.93821 c -0.70286,-1.13726 -2.70232,-2.06775 -4.44323,-2.06775 -3.92166,0 -15.20036,-10.3995 -15.20036,-14.01547 0,-1.46096 -1.39573,-3.19189 -3.10162,-3.8465 -2.36998,-0.90944 -3.10162,-4.79622 -3.10162,-16.47708 0,-8.40778 0.84317,-15.28688 1.87371,-15.28688 1.03054,0 2.51359,-4.65243 3.29565,-10.33873 0.78207,-5.6863 2.26511,-10.33873 3.29566,-10.33873 1.03054,0 1.87371,-2.32622 1.87371,-5.16937 0,-2.84315 0.84317,-5.16937 1.87372,-5.16937 1.03054,0 2.51358,-4.65243 3.29565,-10.33873 0.78207,-5.68631 2.26511,-10.33874 3.29565,-10.33874 1.03055,0 1.87372,-2.32621 1.87372,-5.16937 0,-2.84315 0.82483,-5.16936 1.83296,-5.16936 1.00814,0 2.45763,-4.1655 3.22109,-9.25667 0.76347,-5.09117 2.15937,-9.73332 3.102,-10.3159 0.94263,-0.58257 2.35563,-4.48011 3.14001,-8.66119 0.78437,-4.18108 3.68131,-10.92076 6.43764,-14.97706 2.75633,-4.05631 5.01151,-8.12591 5.01151,-9.04356 0,-2.50898 15.8832,-18.04902 18.44758,-18.04902 1.22644,0 2.22989,-0.88832 2.22989,-1.97405 0,-1.08573 3.26698,-2.58694 7.25996,-3.33603 3.99297,-0.74909 7.76983,-2.18698 8.39302,-3.19532 1.54723,-2.50347 1176.82523,-2.42834 1178.37263,0.0753 0.6488,1.04977 3.9604,2.51943 7.3591,3.26592 3.3987,0.74649 6.1795,2.21381 6.1795,3.2607 0,1.0469 0.9399,1.90346 2.0886,1.90346 3.1245,0 20.6566,17.06757 20.6566,20.10918 0,1.44982 0.9305,2.63603 2.0678,2.63603 1.1373,0 2.0677,1.86098 2.0677,4.1355 0,2.27452 0.9195,4.13549 2.0433,4.13549 1.1239,0 2.6385,3.72195 3.3659,8.27099 0.7275,4.54904 2.0285,8.27099 2.8913,8.27099 0.8628,0 2.1934,4.1655 2.9568,9.25667 0.7635,5.09116 2.2649,9.7985 3.3364,10.46076 1.0716,0.66226 1.9483,3.4754 1.9483,6.25144 0,2.77603 0.8249,5.04733 1.833,5.04733 1.0081,0 2.4609,4.18719 3.2283,9.30486 0.7674,5.11768 2.2688,9.30487 3.3364,9.30487 1.0676,0 1.9411,2.32621 1.9411,5.16936 0,2.84316 0.8431,5.16937 1.8737,5.16937 1.0305,0 2.5136,4.65243 3.2956,10.33874 0.7821,5.6863 2.2651,10.33873 3.2957,10.33873 1.0305,0 1.8737,3.20179 1.8737,7.11508 0,3.9133 0.9305,7.69016 2.0677,8.39302 1.1373,0.70287 2.0678,3.084 2.0678,5.2914 0,2.20741 -0.9305,4.01346 -2.0678,4.01346 -1.1372,0 -2.0677,2.32622 -2.0677,5.16937 0,2.84315 -0.8296,5.16937 -1.8436,5.16937 -1.014,0 -2.4119,2.2642 -3.1064,5.03155 -0.6946,2.76735 -3.1217,5.62152 -5.3935,6.34258 -2.2719,0.72107 -4.1307,2.11067 -4.1307,3.08799 0,0.97733 -2.9345,3.24084 -6.521,5.03003 -5.8891,2.93789 -68.5823,3.25307 -647.08274,3.25307 -424.81078,0 -640.99228,-0.69645 -641.83979,-2.06775 z"
       id="path23618" />
    <path
       style="opacity:0.914;fill:#ffffff;stroke-width:6.78014;stroke-linecap:round;stroke-linejoin:round"
       d="m 474.54793,456.06986 c -235.20562,-1.09118 -251.65868,-1.39909 -257.93196,-4.82711 -3.68539,-2.01387 -8.31633,-6.20106 -10.29097,-9.30486 -1.97465,-3.1038 -4.35746,-6.19299 -5.29512,-6.86486 -2.59607,-1.86019 -2.14788,-25.49106 0.6516,-34.35603 1.36258,-4.31479 4.69432,-13.91627 7.40387,-21.33663 2.70956,-7.42035 4.92646,-14.62183 4.92646,-16.00328 0,-1.38145 2.2,-8.33706 4.88889,-15.45691 2.68889,-7.11984 7.03229,-19.45857 9.652,-27.4194 6.70271,-20.36837 15.19965,-34.64209 25.78575,-43.3166 18.32499,-15.01595 -36.91758,-13.77223 612.04754,-13.77955 540.82011,-0.006 585.79931,0.25387 593.44341,3.43004 10.931,4.54189 24.8436,16.05327 31.429,26.00454 6.4009,9.67234 32.2633,83.25017 41.3851,117.73963 2.8926,10.93671 2.8186,11.98008 -1.5012,21.17011 -6.7149,14.28534 -16.0037,21.55036 -29.3274,22.9378 -16.612,1.72986 -742.00198,2.70652 -1027.26697,1.38311 z"
       id="path23620" />
    <path
       style="opacity:0.914;fill:#ffffff;stroke-width:6.78014;stroke-linecap:round;stroke-linejoin:round"
       d="m 619.29022,115.79383 c 0,-21.366717 0.7728,-34.117824 2.06775,-34.117824 1.13726,0 2.06774,-2.791459 2.06774,-6.203241 0,-3.411783 0.93049,-6.203241 2.06775,-6.203241 1.13726,0 2.06775,-2.259752 2.06775,-5.02167 0,-2.761921 1.16311,-6.268284 2.58468,-7.791922 1.42158,-1.523636 4.23147,-5.719438 6.24421,-9.324003 8.82514,-15.80476 37.84548,-37.8270676 49.84737,-37.8270676 1.71165,0 3.68716,-0.9304861 4.39002,-2.067747 0.70287,-1.1372608 6.3407,-2.0677469 12.52852,-2.0677469 6.18781,0 11.25057,-0.9304862 11.25057,-2.067747 0,-1.3596144 51.69368,-2.067747 150.94553,-2.067747 99.25186,0 150.94549,0.7081326 150.94549,2.067747 0,1.1372608 5.0628,2.067747 11.2506,2.067747 6.1878,0 11.8257,0.9304861 12.5285,2.0677469 0.7029,1.1372609 2.8514,2.0993197 4.7745,2.1379086 1.9231,0.038589 7.2185,1.867988 11.7675,4.065332 4.5491,2.197344 9.0643,4.026744 10.034,4.065333 2.9825,0.118696 30.2871,29.272927 30.2871,32.338833 0,1.585665 0.8565,2.883027 1.9034,2.883027 1.0469,0 2.5166,2.791458 3.2659,6.203241 0.7494,3.411782 2.2191,6.203241 3.266,6.203241 1.0468,0 1.9034,2.2713 1.9034,5.047335 0,2.776035 0.9305,5.622407 2.0678,6.325273 1.2506,0.772922 2.0677,15.529574 2.0677,37.341482 v 36.06354 h -49.6259 -49.626 V 125.09869 100.28573 H 865.35211 718.54208 v 24.81296 24.81297 h -49.62593 -49.62593 z"
       id="path23626" />
    <path
       style="opacity:0.914;fill:#ffffff;stroke-width:6.78014;stroke-linecap:round;stroke-linejoin:round"
       d="m 620.27834,116.31077 c 1.66124,-36.793273 5.17319,-50.663126 17.28319,-68.257064 9.10851,-13.233246 26.02314,-28.09136 38.46281,-33.78643 24.0495,-11.0102236 31.38532,-11.4593856 188.2939,-11.5289709 162.85596,-0.072222 164.23746,0.028949 197.73316,14.4805089 11.7978,5.090112 32.6476,28.495811 40.5433,45.513354 5.5771,12.020339 8.3152,34.805459 8.675,72.188322 l 0.1443,14.99117 h -49.6259 -49.626 V 125.09869 100.28573 H 865.35211 718.54208 v 24.81296 24.81297 h -49.89043 -49.89042 z"
       id="path23628" />
    <g
       id="g23647"
       transform="translate(-1.3730159,0.1288155)">
      <path
         style="opacity:0.914;fill:#ffffff;stroke-width:6.78014;stroke-linecap:round;stroke-linejoin:round"
         d="m 330.83952,453.89731 c -74.65621,-0.81611 -109.19888,-1.90867 -113.00596,-3.57431 -3.01571,-1.3194 -8.13339,-5.88217 -11.37261,-10.13949 -9.89006,-12.99852 -8.27004,-25.59425 10.59433,-82.37137 8.67395,-26.10645 18.25164,-52.02438 21.28377,-57.5954 8.29266,-15.23634 20.29526,-27.84339 29.03638,-30.49864 4.65633,-1.41444 41.11227,-2.99567 93.44642,-4.05314 98.78748,-1.99611 838.99625,-2.1646 994.58625,-0.22639 l 104.4213,1.30079 9.501,6.59884 c 19.9449,13.85243 26.329,26.19619 48.9891,94.72076 12.9636,39.20222 15.8503,50.78669 14.2472,57.1741 -1.7894,7.12952 -9.6154,18.14446 -16.5388,23.27791 -5.713,4.23602 -8.3255,4.35207 -126.1325,5.60242 -147.0947,1.56121 -910.72448,1.4054 -1059.05588,-0.21608 z"
         id="path23624" />
      <path
         style="opacity:0.914;fill:#ffffff;stroke-width:6.78014;stroke-linecap:round;stroke-linejoin:round"
         d="m 619.33281,148.36085 c 0.63548,-23.14061 4.86052,-66.233166 7.34039,-74.867024 4.40379,-15.332198 13.18582,-28.644588 27.857,-42.227515 14.29917,-13.238508 29.33289,-20.855491 47.64799,-24.1413346 18.57098,-3.3317489 246.42036,-5.0979012 293.44198,-2.2745868 56.02633,3.3639805 73.80873,11.2909574 96.42413,42.9836144 5.2064,7.296113 10.8053,17.662715 12.442,23.036893 2.2797,7.485655 6.2397,51.601263 6.8629,76.456073 0.05,1.99775 -11.2043,2.58469 -49.5611,2.58469 h -49.626 V 125.09869 100.28573 H 865.35211 718.54208 v 24.81296 24.81297 h -49.62593 c -27.29426,0 -49.60676,-0.69787 -49.58334,-1.55081 z"
         id="path23630" />
      <path
         style="opacity:0.914;fill:#ffffff;stroke-width:6.78014;stroke-linecap:round;stroke-linejoin:round"
         d="m 564.49493,1725.4418 c -52.9629,-1.2629 -61.55144,-1.941 -73.55417,-5.8073 -27.77631,-8.9471 -51.48313,-30.0577 -64.19632,-57.1659 -8.37101,-17.8494 -12.74229,-57.198 -27.67986,-249.1635 -6.31608,-81.1691 -18.41028,-231.0468 -22.77562,-282.2475 -1.74532,-20.4707 -7.35104,-89.3267 -12.45714,-153.01328 -5.10611,-63.6866 -12.56136,-155.80473 -16.56722,-204.70695 -4.00586,-48.90221 -7.85032,-107.09054 -8.54325,-129.30739 -1.5211,-48.76947 -0.82789,-51.14911 18.69862,-64.18841 l 12.688,-8.47272 497.39392,0.69853 c 482.56651,0.67771 497.57611,0.81438 503.50571,4.58477 9.9726,6.34108 17.6019,14.21526 21.9325,22.63646 3.9844,7.74805 4.0012,8.86856 0.8065,53.76142 -1.7945,25.21665 -7.4128,96.55994 -12.485,158.54066 -5.0722,61.98072 -13.4468,165.72992 -18.6101,230.55381 -5.1634,64.8238 -13.53,168.1078 -18.5925,229.5199 -5.0625,61.4121 -12.0758,148.4125 -15.5851,193.3343 -9.7386,124.6614 -15.3622,176.7637 -20.5826,190.6975 -8.2186,21.9365 -31.2974,48.1096 -50.2538,56.9916 -24.707,11.5765 -22.8812,11.3826 -122.4444,13.0069 -114.3017,1.8648 -488.85055,1.6989 -570.69817,-0.2529 z m 64.95008,-102.3973 c 12.29544,-3.6514 25.87318,-15.6602 31.7601,-28.0902 4.16723,-8.7989 4.75439,-44.4653 1.56075,-94.8039 -1.04619,-16.4902 -5.22834,-84.4157 -9.29367,-150.9455 -25.94504,-424.59465 -37.19277,-597.78937 -40.20211,-619.03916 -4.26072,-30.08608 -23.51891,-46.69146 -54.58095,-47.06248 -17.9814,-0.21478 -30.77801,5.0597 -41.67176,17.17617 -15.42958,17.16142 -17.77153,31.389 -13.55739,82.3628 2.06141,24.93461 8.30725,122.16919 13.48136,209.87632 1.67727,28.43155 3.99975,67.04665 5.16109,85.81155 1.16133,18.7648 4.89422,79.2464 8.29532,134.4035 3.40109,55.1572 8.47938,134.7137 11.28509,176.7924 2.8057,42.0786 6.09441,96.0468 7.30822,119.9293 3.90405,76.8139 6.69717,89.1747 23.37638,103.4515 14.77575,12.6475 35.9575,16.4096 57.07757,10.1377 z m 263.7091,-2.7156 c 12.50983,-5.554 23.23562,-18.5257 25.29164,-30.5874 0.93591,-5.4905 1.70166,-203.9892 1.70166,-441.1081 V 717.5082 l -4.70859,-8.81564 c -15.61877,-29.24214 -60.73612,-34.78713 -88.03377,-10.81948 -12.09281,10.61763 -14.00258,16.20871 -15.88735,46.51215 -5.47881,88.08898 -3.6224,826.46507 2.12566,845.46837 3.00692,9.941 18.11154,26.4017 29.63094,32.2911 7.48618,3.8274 10.82732,4.2488 25.06684,3.1612 9.03616,-0.6902 20.20199,-2.9298 24.81297,-4.977 z m 255.08589,1.0012 c 9.0282,-4.6858 22.7165,-17.1707 26.1382,-23.8402 5.0387,-9.8215 7.2658,-27.735 10.4308,-83.8991 1.7304,-30.7061 4.5213,-78.1608 6.2021,-105.4551 4.4165,-71.7201 7.9627,-131.5316 20.6576,-348.4154 15.8578,-270.92015 17.5995,-302.76457 17.6034,-321.86403 0,-16.42045 -0.2314,-17.22103 -8.7844,-29.95373 -11.5315,-17.16652 -26.3007,-25.32893 -45.6085,-25.20612 -20.2001,0.12849 -29.5064,3.6849 -41.7925,15.97103 -8.5838,8.58375 -11.2767,12.9376 -13.0107,21.03565 -2.8583,13.34851 -4.7703,40.24367 -15.8669,223.18952 -32.9147,542.65288 -37.3981,633.16558 -32.1501,649.06708 4.5666,13.8371 19.0562,27.2187 35.2061,32.5142 8.2955,2.72 33.3861,0.795 40.9749,-3.1438 z"
         id="path23642" />
    </g>
  </g>
</svg>
