<?xml version="1.0" encoding="UTF-8" standalone="no"?>
<!-- Created with Inkscape (http://www.inkscape.org/) -->

<svg
   version="1.1"
   id="svg1000"
   width="1388.4746"
   height="1388.4746"
   viewBox="0 0 1388.4746 1388.4746"
   sodipodi:docname="suivant.svg"
   inkscape:version="1.2.1 (9c6d41e410, 2022-07-14)"
   xmlns:inkscape="http://www.inkscape.org/namespaces/inkscape"
   xmlns:sodipodi="http://sodipodi.sourceforge.net/DTD/sodipodi-0.dtd"
   xmlns="http://www.w3.org/2000/svg"
   xmlns:svg="http://www.w3.org/2000/svg">
  <defs
     id="defs1004" />
  <sodipodi:namedview
     id="namedview1002"
     pagecolor="#ffffff"
     bordercolor="#000000"
     borderopacity="0.25"
     inkscape:showpageshadow="2"
     inkscape:pageopacity="0.0"
     inkscape:pagecheckerboard="0"
     inkscape:deskcolor="#d1d1d1"
     showgrid="false"
     inkscape:zoom="0.60281981"
     inkscape:cx="570.65145"
     inkscape:cy="695.06674"
     inkscape:window-width="1920"
     inkscape:window-height="1017"
     inkscape:window-x="-8"
     inkscape:window-y="-8"
     inkscape:window-maximized="1"
     inkscape:current-layer="g1006" />
  <g
     inkscape:groupmode="layer"
     inkscape:label="Image"
     id="g1006">
    <g
       id="g1496"
       transform="translate(1.2123371e-6,-0.16598267)">
      <path
         style="opacity:0.914;fill:#008080;stroke-width:5.43944;stroke-linecap:round;stroke-linejoin:round"
         d="m 664.37764,1384.1067 c -34.70731,-1.2556 -71.17381,-4.3112 -74.71555,-6.2606 -1.40506,-0.7733 -8.68755,-1.9489 -16.18329,-2.6124 -7.49576,-0.6636 -14.04174,-1.8749 -14.54665,-2.6918 -0.50491,-0.817 -3.44264,-1.4854 -6.52827,-1.4854 -3.08563,0 -6.03541,-0.6879 -6.55503,-1.5287 -0.51964,-0.8408 -5.79951,-2.0486 -11.73306,-2.6841 -5.93355,-0.6354 -11.1952,-1.8137 -11.69255,-2.6184 -0.49734,-0.8048 -2.68239,-1.4632 -4.85564,-1.4632 -2.17326,0 -4.3595,-0.6603 -4.85832,-1.4674 -0.49881,-0.8071 -4.46195,-1.9967 -8.80696,-2.6436 -4.34503,-0.6468 -8.64653,-1.7162 -9.55891,-2.3764 -0.91238,-0.6602 -6.13782,-2.5495 -11.61209,-4.1984 -5.47428,-1.6489 -11.22699,-3.6376 -12.78381,-4.4193 -1.5568,-0.7817 -5.84913,-1.9039 -9.5385,-2.4939 -3.68936,-0.5899 -6.70793,-1.7237 -6.70793,-2.5194 0,-0.7958 -1.0344,-1.4469 -2.29868,-1.4469 -1.26427,0 -4.43686,-1.1151 -7.0502,-2.4781 -2.61333,-1.3629 -6.43112,-2.4827 -8.48398,-2.4883 -2.05285,0 -3.73245,-0.5745 -3.73245,-1.2641 0,-0.6897 -2.4261,-2.2756 -5.39133,-3.5243 -2.96523,-1.2488 -7.55888,-3.2972 -10.2081,-4.5522 -2.64921,-1.2549 -5.8218,-2.2817 -7.0502,-2.2817 -1.22839,0 -2.23343,-0.6872 -2.23343,-1.5271 0,-0.8398 -2.23948,-2.0189 -4.97661,-2.6201 -2.73714,-0.6012 -4.97661,-1.7464 -4.97661,-2.5449 0,-0.7986 -2.61273,-1.9421 -5.80605,-2.5411 -3.19333,-0.5991 -5.80605,-1.7527 -5.80605,-2.5635 0,-0.8109 -1.11974,-1.4743 -2.4883,-1.4743 -1.36857,0 -2.48831,-0.7465 -2.48831,-1.6588 0,-0.9124 -0.74137,-1.6589 -1.64749,-1.6589 -2.83277,0 -14.94122,-5.6946 -14.94122,-7.0268 0,-0.6972 -1.06642,-1.2676 -2.36981,-1.2676 -1.30341,0 -3.36764,-0.9331 -4.58721,-2.0736 -1.21955,-1.1404 -5.19196,-3.5647 -8.82756,-5.3873 -3.63558,-1.8225 -7.5966,-4.2486 -8.80225,-5.3913 -1.20563,-1.1427 -3.25848,-2.0776 -4.56189,-2.0776 -1.30339,0 -2.36981,-0.5767 -2.36981,-1.2816 0,-0.7049 -2.79935,-2.7578 -6.22077,-4.5619 -3.42142,-1.8042 -7.65872,-4.5781 -9.41623,-6.1643 -1.75749,-1.5863 -4.55683,-3.3162 -6.22076,-3.8443 -1.66392,-0.5281 -3.0253,-1.6564 -3.0253,-2.5073 0,-0.8508 -1.06642,-1.547 -2.36981,-1.547 -1.30341,0 -3.35626,-0.9332 -4.5619,-2.0736 -3.60834,-3.4133 -14.33591,-11.1974 -15.43158,-11.1974 -0.56063,0 -2.74888,-1.8662 -4.86279,-4.1472 -2.11392,-2.2809 -4.34924,-4.1472 -4.96742,-4.1472 -1.3202,0 -5.07975,-2.9667 -8.93423,-7.0502 -1.50714,-1.5966 -3.4199,-2.903 -4.25059,-2.903 -0.83068,0 -2.71763,-1.3214 -4.19321,-2.9364 -1.4756,-1.615 -5.29561,-5.0339 -8.48894,-7.5974 -23.57952,-18.9294 -66.36142,-61.6826 -84.07814,-84.0218 -2.53256,-3.1933 -5.92603,-7.0133 -7.54106,-8.4889 -1.61503,-1.4756 -2.93642,-3.3626 -2.93642,-4.1932 0,-0.8307 -1.30636,-2.7435 -2.90302,-4.2506 -4.08346,-3.8545 -7.0502,-7.6141 -7.0502,-8.9343 0,-0.6181 -1.86623,-2.8535 -4.14718,-4.9674 -2.28094,-2.1139 -4.14717,-4.2842 -4.14717,-4.8229 0,-0.5388 -2.98597,-5.0215 -6.63549,-9.9616 -3.64951,-4.9402 -6.63548,-9.7605 -6.63548,-10.7119 0,-0.9513 -0.69619,-1.7297 -1.54708,-1.7297 -0.8509,0 -1.97917,-1.3614 -2.50728,-3.0253 -0.52811,-1.6639 -2.25802,-4.4632 -3.84425,-6.2207 -1.58622,-1.7575 -4.36016,-5.9948 -6.1643,-9.4163 -1.80414,-3.4214 -3.857,-6.2207 -4.5619,-6.2207 -0.7049,0 -1.28163,-1.0664 -1.28163,-2.3698 0,-1.3034 -0.93492,-3.3563 -2.07759,-4.5619 -1.14268,-1.2057 -3.568776,-5.1667 -5.391332,-8.8023 -1.822556,-3.6356 -4.246855,-7.608 -5.387328,-8.8275 -1.140474,-1.2196 -2.073588,-3.2838 -2.073588,-4.5873 0,-1.3033 -0.570395,-2.3698 -1.267543,-2.3698 -1.332247,0 -7.02681,-12.1084 -7.02681,-14.9412 0,-0.9061 -0.746491,-1.6475 -1.65887,-1.6475 -0.912379,0 -1.658871,-1.1197 -1.658871,-2.4883 0,-1.3685 -0.663414,-2.4883 -1.474253,-2.4883 -0.810839,0 -1.964403,-2.6127 -2.563474,-5.80603 -0.599071,-3.19332 -1.742574,-5.80605 -2.541118,-5.80605 -0.798542,0 -1.943766,-2.23947 -2.544942,-4.97661 -0.601177,-2.73713 -1.780227,-4.97661 -2.620112,-4.97661 -0.839886,0 -1.527065,-1.49298 -1.527065,-3.31774 0,-1.82476 -0.746491,-3.31774 -1.65887,-3.31774 -0.912379,0 -1.658871,-1.11461 -1.658871,-2.47693 0,-3.45715 -5.486432,-15.77065 -7.026809,-15.77065 -0.697149,0 -1.272142,-1.6796 -1.277764,-3.73245 -0.0056,-2.05286 -1.125357,-5.87065 -2.488305,-8.48398 -1.362947,-2.61334 -2.478086,-5.78593 -2.478086,-7.0502 0,-1.26428 -0.651083,-2.29868 -1.446853,-2.29868 -0.795769,0 -1.929542,-3.01857 -2.519494,-6.70793 -0.589955,-3.68938 -1.712204,-7.9817 -2.493888,-9.5385 -0.781687,-1.55682 -2.770349,-7.30953 -4.419251,-12.78381 -1.648901,-5.47427 -3.538165,-10.69971 -4.198363,-11.61209 -0.660199,-0.91238 -1.729604,-5.21388 -2.376456,-9.55891 -0.646853,-4.34501 -1.836453,-8.30815 -2.643554,-8.80696 -0.807101,-0.49882 -1.467457,-2.68506 -1.467457,-4.85832 0,-2.17325 -0.658416,-4.3583 -1.463147,-4.85564 -0.804732,-0.49735 -1.983044,-5.759 -2.618473,-11.69255 -0.63543,-5.93355 -1.843242,-11.21342 -2.684029,-11.73306 -0.840787,-0.51963 -1.528704,-3.4694 -1.528704,-6.55503 0,-3.08563 -0.668425,-6.02336 -1.485389,-6.52827 -0.816964,-0.50491 -2.028273,-7.05089 -2.691799,-14.54665 C 12.577427,807.50007 11.401806,800.21758 10.62846,798.81252 8.6792037,795.27096 5.6529688,758.87524 4.3815231,723.68226 2.7785867,679.31379 6.6177673,596.94901 10.62846,589.66209 c 0.773346,-1.40506 1.948967,-8.68755 2.612492,-16.18329 0.663526,-7.49576 1.874835,-14.04174 2.691799,-14.54665 0.816964,-0.50491 1.485389,-3.44264 1.485389,-6.52827 0,-3.08563 0.687917,-6.03541 1.528704,-6.55503 0.840787,-0.51964 2.048599,-5.79951 2.684029,-11.73306 0.635429,-5.93355 1.813741,-11.1952 2.618473,-11.69255 0.804731,-0.49734 1.463147,-2.68239 1.463147,-4.85564 0,-2.17326 0.660356,-4.3595 1.467457,-4.85832 0.807101,-0.49881 1.996701,-4.46195 2.643554,-8.80696 0.646852,-4.34503 1.716257,-8.64653 2.376456,-9.55891 0.660198,-0.91238 2.549462,-6.13782 4.198363,-11.61209 1.648902,-5.47428 3.637564,-11.22699 4.419251,-12.78381 0.781684,-1.5568 1.903933,-5.84913 2.493888,-9.5385 0.589952,-3.68936 1.723725,-6.70793 2.519494,-6.70793 0.79577,0 1.446853,-1.0344 1.446853,-2.29868 0,-1.26427 1.115139,-4.43686 2.478086,-7.0502 1.362948,-2.61333 2.482685,-6.43112 2.488305,-8.48398 0.0056,-2.05285 0.574486,-3.73245 1.264143,-3.73245 0.689655,0 2.275595,-2.4261 3.52431,-5.39133 1.248715,-2.96523 3.297171,-7.55888 4.552126,-10.2081 1.254954,-2.64921 2.281735,-5.8218 2.281735,-7.0502 0,-1.22839 0.687179,-2.23343 1.527065,-2.23343 0.839885,0 2.018935,-2.23948 2.620112,-4.97661 0.601176,-2.73714 1.7464,-4.97661 2.544942,-4.97661 0.798544,0 1.942047,-2.61273 2.541118,-5.80605 0.599071,-3.19333 1.752635,-5.80605 2.563474,-5.80605 0.810839,0 1.474253,-1.11974 1.474253,-2.4883 0,-1.36857 0.746492,-2.48831 1.658871,-2.48831 0.912379,0 1.65887,-0.74137 1.65887,-1.64749 0,-2.83277 5.694563,-14.94122 7.02681,-14.94122 0.697148,0 1.267543,-1.06642 1.267543,-2.36981 0,-1.30341 0.933114,-3.36764 2.073588,-4.58721 1.140473,-1.21955 3.564772,-5.19196 5.387328,-8.82756 1.822556,-3.63558 4.248652,-7.5966 5.391332,-8.80225 1.14267,-1.20563 2.07759,-3.25848 2.07759,-4.56189 0,-1.30339 0.57673,-2.36981 1.28163,-2.36981 0.7049,0 2.75776,-2.79935 4.5619,-6.22077 1.80414,-3.42142 4.57808,-7.65872 6.1643,-9.41623 1.58623,-1.75749 3.31614,-4.55683 3.84425,-6.22076 0.52811,-1.66392 1.65638,-3.0253 2.50728,-3.0253 0.85089,0 1.54708,-0.77836 1.54708,-1.72971 0,-0.95133 2.98597,-5.77165 6.63548,-10.71182 3.64952,-4.94017 6.63549,-9.42288 6.63549,-9.9616 0,-0.53872 1.86623,-2.70904 4.14717,-4.82295 2.28095,-2.11392 4.14718,-4.34924 4.14718,-4.96742 0,-1.3202 2.96674,-5.07975 7.0502,-8.93423 1.59666,-1.50714 2.90302,-3.4199 2.90302,-4.25059 0,-0.83068 1.32139,-2.71763 2.93642,-4.19321 1.61503,-1.4756 5.03387,-5.29561 7.59744,-8.48894 18.81571,-23.43797 60.58379,-65.20605 84.02176,-84.02176 3.19333,-2.56357 7.01334,-5.98241 8.48894,-7.59744 1.47558,-1.61503 3.36253,-2.93642 4.19321,-2.93642 0.83069,0 2.74345,-1.30636 4.25059,-2.90302 3.85448,-4.08346 7.61403,-7.0502 8.93423,-7.0502 0.61818,0 2.8535,-1.86623 4.96742,-4.14718 2.11391,-2.28094 4.28423,-4.14717 4.82295,-4.14717 0.53872,0 5.02143,-2.98597 9.9616,-6.63549 4.94017,-3.64951 9.76049,-6.63548 10.71182,-6.63548 0.95135,0 1.72971,-0.69619 1.72971,-1.54708 0,-0.8509 1.36138,-1.97917 3.0253,-2.50728 1.66393,-0.52811 4.46327,-2.25802 6.22076,-3.84425 1.75751,-1.58622 5.99481,-4.36016 9.41623,-6.1643 3.42142,-1.80414 6.22077,-3.857 6.22077,-4.5619 0,-0.7049 1.06642,-1.28163 2.36981,-1.28163 1.30341,0 3.35626,-0.93492 4.56189,-2.07759 1.20565,-1.14268 5.16667,-3.568776 8.80225,-5.391332 3.6356,-1.822556 7.60801,-4.246855 8.82756,-5.387328 1.21957,-1.140474 3.2838,-2.073588 4.58721,-2.073588 1.30339,0 2.36981,-0.570395 2.36981,-1.267543 0,-1.332247 12.10845,-7.02681 14.94122,-7.02681 0.90612,0 1.64749,-0.746491 1.64749,-1.65887 0,-0.912379 1.11974,-1.658871 2.48831,-1.658871 1.36856,0 2.4883,-0.663414 2.4883,-1.474253 0,-0.810839 2.61272,-1.964403 5.80605,-2.563474 3.19332,-0.599071 5.80605,-1.742574 5.80605,-2.541118 0,-0.798542 2.23947,-1.943766 4.97661,-2.544942 2.73713,-0.601177 4.97661,-1.780227 4.97661,-2.620112 0,-0.839886 1.00504,-1.527065 2.23343,-1.527065 1.2284,0 4.40099,-1.026781 7.0502,-2.281735 2.64922,-1.254955 7.24287,-3.303411 10.2081,-4.552126 2.96523,-1.248715 5.39133,-2.834655 5.39133,-3.52431 0,-0.689657 1.6796,-1.258521 3.73245,-1.264143 2.05286,-0.0056 5.87065,-1.125357 8.48398,-2.488305 2.61334,-1.362947 5.78593,-2.478086 7.0502,-2.478086 1.26428,0 2.29868,-0.651083 2.29868,-1.446853 0,-0.795769 3.01857,-1.929542 6.70793,-2.519494 3.68937,-0.589955 7.9817,-1.712204 9.5385,-2.493888 1.55682,-0.781687 7.30953,-2.770349 12.78381,-4.419251 5.47427,-1.648901 10.69971,-3.538165 11.61209,-4.198363 0.91238,-0.660199 5.21388,-1.729604 9.55891,-2.376456 4.34501,-0.646853 8.30815,-1.836453 8.80696,-2.643554 0.49882,-0.807101 2.68506,-1.467457 4.85832,-1.467457 2.17325,0 4.3583,-0.658416 4.85564,-1.463147 0.49735,-0.804732 5.759,-1.983044 11.69255,-2.618473 5.93355,-0.63543 11.21342,-1.843242 11.73306,-2.684029 0.51962,-0.840787 3.4694,-1.528704 6.55503,-1.528704 3.08563,0 6.02336,-0.668425 6.52827,-1.485389 0.50491,-0.816964 7.05089,-2.028273 14.54665,-2.691799 7.49574,-0.663525 14.77823,-1.839146 16.18329,-2.612492 7.28692,-4.0106927 89.6517,-7.8498733 134.02017,-6.2469369 35.19298,1.2714457 71.5887,4.2976806 75.13026,6.2469369 1.40506,0.773346 8.68755,1.948967 16.18329,2.612492 7.49576,0.663526 14.04174,1.874835 14.54665,2.691799 0.50491,0.816964 3.44264,1.485389 6.52827,1.485389 3.08563,0 6.0354,0.687917 6.55503,1.528704 0.51964,0.840787 5.79951,2.048599 11.73306,2.684029 5.93355,0.635429 11.1952,1.813741 11.69255,2.618473 0.49734,0.804731 2.68239,1.463147 4.85564,1.463147 2.17326,0 4.3595,0.660356 4.85832,1.467457 0.49881,0.807101 4.46195,1.996701 8.80696,2.643554 4.34503,0.646852 8.64653,1.716257 9.55891,2.376456 0.91238,0.660198 6.13782,2.549462 11.61209,4.198363 5.47428,1.648902 11.22699,3.637564 12.78381,4.419251 1.5568,0.781684 5.84912,1.903933 9.5385,2.493888 3.68936,0.589952 6.70793,1.723725 6.70793,2.519494 0,0.79577 1.0344,1.446853 2.29868,1.446853 1.26427,0 4.43686,1.115139 7.0502,2.478086 2.61333,1.362948 6.43112,2.482685 8.48398,2.488305 2.05285,0.0056 3.73245,0.580615 3.73245,1.277764 0,1.540377 12.3135,7.026809 15.77065,7.026809 1.36232,0 2.47693,0.746492 2.47693,1.658871 0,0.912379 1.49298,1.65887 3.31774,1.65887 1.82476,0 3.31774,0.687179 3.31774,1.527065 0,0.839885 2.23948,2.018935 4.97661,2.620112 2.73714,0.601176 4.97661,1.7464 4.97661,2.544942 0,0.798544 2.61273,1.942047 5.80605,2.541118 3.19333,0.599071 5.80603,1.752635 5.80603,2.563474 0,0.810839 1.1198,1.474253 2.4883,1.474253 1.3686,0 2.4883,0.746492 2.4883,1.658871 0,0.912379 0.7414,1.65887 1.6475,1.65887 2.8328,0 14.9412,5.694563 14.9412,7.02681 0,0.697148 1.0665,1.267543 2.3698,1.267543 1.3035,0 3.3677,0.933114 4.5873,2.073588 1.2195,1.140473 5.1919,3.564772 8.8275,5.387328 3.6356,1.822556 7.5966,4.248652 8.8023,5.391332 1.2056,1.14267 3.2585,2.07759 4.5619,2.07759 1.3034,0 2.3698,0.57673 2.3698,1.28163 0,0.7049 2.7993,2.75776 6.2207,4.5619 3.4215,1.80414 7.6588,4.57808 9.4163,6.1643 1.7575,1.58623 4.5568,3.31614 6.2207,3.84425 1.6639,0.52811 3.0253,1.65638 3.0253,2.50728 0,0.85089 0.7784,1.54708 1.7297,1.54708 0.9514,0 5.7717,2.98597 10.7119,6.63548 4.9401,3.64952 9.4228,6.63549 9.9616,6.63549 0.5387,0 2.709,1.86623 4.8229,4.14717 2.1139,2.28095 4.3493,4.14718 4.9674,4.14718 1.3202,0 5.0798,2.96674 8.9343,7.0502 1.5071,1.59666 3.4199,2.90302 4.2506,2.90302 0.8306,0 2.7176,1.32139 4.1932,2.93642 1.4756,1.61503 5.2956,5.0085 8.4889,7.54106 22.3392,17.71672 65.0924,60.49862 84.0218,84.07814 2.5635,3.19333 5.9824,7.01334 7.5974,8.48894 1.615,1.47558 2.9364,3.36253 2.9364,4.19321 0,0.83069 1.3064,2.74345 2.903,4.25059 4.0835,3.85448 7.0502,7.61403 7.0502,8.93423 0,0.61818 1.8663,2.8535 4.1472,4.96742 2.281,2.11391 4.1472,4.30216 4.1472,4.86279 0,1.09567 7.7841,11.82324 11.1974,15.43158 1.1404,1.20564 2.0736,3.25849 2.0736,4.5619 0,1.30339 0.6962,2.36981 1.547,2.36981 0.8509,0 1.9792,1.36138 2.5073,3.0253 0.5281,1.66393 2.258,4.46327 3.8443,6.22076 1.5862,1.75751 4.3601,5.99481 6.1643,9.41623 1.8041,3.42142 3.857,6.22077 4.5619,6.22077 0.7049,0 1.2816,1.06642 1.2816,2.36981 0,1.30341 0.9349,3.35626 2.0776,4.56189 1.1427,1.20565 3.5688,5.16667 5.3913,8.80225 1.8226,3.6356 4.2469,7.60801 5.3873,8.82756 1.1405,1.21957 2.0736,3.2838 2.0736,4.58721 0,1.30339 0.5704,2.36981 1.2676,2.36981 1.3322,0 7.0268,12.10845 7.0268,14.94122 0,0.90612 0.7465,1.64749 1.6589,1.64749 0.9123,0 1.6588,1.11974 1.6588,2.48831 0,1.36856 0.6634,2.4883 1.4743,2.4883 0.8108,0 1.9644,2.61272 2.5635,5.80605 0.599,3.19332 1.7425,5.80605 2.5411,5.80605 0.7985,0 1.9437,2.23947 2.5449,4.97661 0.6012,2.73713 1.7803,4.97661 2.6201,4.97661 0.8399,0 1.5271,1.00504 1.5271,2.23343 0,1.2284 1.0268,4.40099 2.2817,7.0502 1.255,2.64922 3.3034,7.24287 4.5522,10.2081 1.2487,2.96523 2.8346,5.39133 3.5243,5.39133 0.6896,0 1.2585,1.6796 1.2641,3.73245 0.01,2.05286 1.1254,5.87065 2.4883,8.48398 1.363,2.61334 2.4781,5.78593 2.4781,7.0502 0,1.26428 0.6511,2.29868 1.4469,2.29868 0.7957,0 1.9295,3.01857 2.5194,6.70793 0.59,3.68937 1.7122,7.9817 2.4939,9.5385 0.7817,1.55682 2.7704,7.30953 4.4193,12.78381 1.6489,5.47427 3.5382,10.69971 4.1984,11.61209 0.6602,0.91238 1.7296,5.21388 2.3764,9.55891 0.6469,4.34501 1.8365,8.30815 2.6436,8.80696 0.8071,0.49882 1.4674,2.68506 1.4674,4.85832 0,2.17325 0.6584,4.3583 1.4632,4.85564 0.8047,0.49735 1.983,5.759 2.6184,11.69255 0.6355,5.93355 1.8433,11.21342 2.6841,11.73306 0.8408,0.51962 1.5287,3.4694 1.5287,6.55503 0,3.08563 0.6684,6.02336 1.4854,6.52827 0.8169,0.50491 2.0282,7.05089 2.6918,14.54665 0.6635,7.49574 1.8391,14.77823 2.6124,16.18329 4.0107,7.28692 7.8499,89.6517 6.247,134.02017 -1.2715,35.19298 -4.2977,71.5887 -6.247,75.13026 -0.7733,1.40506 -1.9489,8.68755 -2.6124,16.18329 -0.6636,7.49576 -1.8749,14.04174 -2.6918,14.54665 -0.817,0.50491 -1.4854,3.44264 -1.4854,6.52827 0,3.08563 -0.6879,6.0354 -1.5287,6.55503 -0.8408,0.51964 -2.0486,5.79951 -2.6841,11.73306 -0.6354,5.93355 -1.8137,11.1952 -2.6184,11.69255 -0.8048,0.49734 -1.4632,2.68239 -1.4632,4.85564 0,2.17326 -0.6603,4.3595 -1.4674,4.85832 -0.8071,0.49881 -1.9967,4.46195 -2.6436,8.80696 -0.6468,4.34503 -1.7162,8.64653 -2.3764,9.55891 -0.6602,0.91238 -2.5495,6.13782 -4.1984,11.61209 -1.6489,5.47428 -3.6376,11.22699 -4.4193,12.78381 -0.7817,1.5568 -1.9039,5.84912 -2.4939,9.5385 -0.5899,3.68936 -1.7237,6.70793 -2.5194,6.70793 -0.7958,0 -1.4469,1.0344 -1.4469,2.29868 0,1.26427 -1.1151,4.43686 -2.4781,7.0502 -1.3629,2.61333 -2.4827,6.43112 -2.4883,8.48398 0,2.05285 -0.5806,3.73245 -1.2778,3.73245 -1.5403,0 -7.0268,12.3135 -7.0268,15.77065 0,1.36232 -0.7465,2.47693 -1.6588,2.47693 -0.9124,0 -1.6589,1.49298 -1.6589,3.31774 0,1.82476 -0.7465,3.31774 -1.6589,3.31774 -0.9124,0 -1.6588,0.94416 -1.6588,2.09816 0,1.15397 -1.493,4.88373 -3.3178,8.28833 -1.8247,3.40461 -3.3177,7.31263 -3.3177,8.68451 0,1.3719 -0.7465,2.4943 -1.6589,2.4943 -0.9124,0 -1.6589,1.1198 -1.6589,2.4883 0,1.3686 -0.7465,2.4883 -1.6588,2.4883 -0.9124,0 -1.6589,0.7414 -1.6589,1.6475 0,2.8328 -5.6946,14.9412 -7.0268,14.9412 -0.6972,0 -1.2676,1.0665 -1.2676,2.3698 0,1.3035 -0.9331,3.3677 -2.0736,4.5873 -1.1404,1.2195 -3.5647,5.1919 -5.3873,8.8275 -1.8225,3.6356 -4.2486,7.5966 -5.3913,8.8023 -1.1427,1.2056 -2.0776,3.2585 -2.0776,4.5619 0,1.3034 -0.5767,2.3698 -1.2816,2.3698 -0.7049,0 -2.7578,2.7993 -4.5619,6.2207 -1.8042,3.4215 -4.5781,7.6588 -6.1643,9.4163 -1.5863,1.7575 -3.3162,4.5568 -3.8443,6.2207 -0.5281,1.6639 -1.6564,3.0253 -2.5073,3.0253 -0.8508,0 -1.547,1.0665 -1.547,2.3698 0,1.3035 -0.9332,3.3563 -2.0736,4.5619 -3.4133,3.6084 -11.1974,14.3359 -11.1974,15.4316 0,0.5606 -1.8662,2.7489 -4.1472,4.8628 -2.2809,2.1139 -4.1472,4.3493 -4.1472,4.9674 0,1.3202 -2.9667,5.0798 -7.0502,8.9343 -1.5966,1.5071 -2.903,3.4199 -2.903,4.2506 0,0.8306 -1.3214,2.7176 -2.9364,4.1932 -1.615,1.4756 -5.0085,5.2956 -7.5411,8.4889 -17.8176,22.4664 -61.6117,66.2605 -84.0781,84.0781 -3.1933,2.5326 -7.0133,5.9261 -8.4889,7.5411 -1.4756,1.615 -3.3626,2.9364 -4.1932,2.9364 -0.8307,0 -2.7435,1.3064 -4.2506,2.903 -3.8545,4.0835 -7.6141,7.0502 -8.9343,7.0502 -0.6181,0 -2.8535,1.8663 -4.9674,4.1472 -2.1139,2.281 -4.3022,4.1472 -4.8628,4.1472 -1.0957,0 -11.8232,7.7841 -15.4316,11.1974 -1.2056,1.1404 -3.2584,2.0736 -4.5619,2.0736 -1.3033,0 -2.3698,0.6962 -2.3698,1.547 0,0.8509 -1.3614,1.9792 -3.0253,2.5073 -1.6639,0.5281 -4.4632,2.258 -6.2207,3.8443 -1.7575,1.5862 -5.9948,4.3601 -9.4163,6.1643 -3.4214,1.8041 -6.2207,3.857 -6.2207,4.5619 0,0.7049 -1.0664,1.2816 -2.3698,1.2816 -1.3034,0 -3.3563,0.9349 -4.5619,2.0776 -1.2057,1.1427 -5.1667,3.5688 -8.8023,5.3913 -3.6356,1.8226 -7.608,4.2469 -8.8275,5.3873 -1.2196,1.1405 -3.2838,2.0736 -4.5873,2.0736 -1.3033,0 -2.3698,0.5704 -2.3698,1.2676 0,1.3322 -12.1084,7.0268 -14.9412,7.0268 -0.9061,0 -1.6475,0.7465 -1.6475,1.6589 0,0.9123 -1.1197,1.6588 -2.4883,1.6588 -1.3685,0 -2.4883,0.7465 -2.4883,1.6589 0,0.9124 -1.1224,1.6589 -2.4943,1.6589 -1.37188,0 -5.2799,1.493 -8.68451,3.3177 -3.4046,1.8248 -7.13436,3.3178 -8.28833,3.3178 -1.154,0 -2.09816,0.7464 -2.09816,1.6588 0,0.9124 -1.49298,1.6589 -3.31774,1.6589 -1.82476,0 -3.31774,0.7465 -3.31774,1.6589 0,0.9123 -1.11461,1.6588 -2.47693,1.6588 -3.45715,0 -15.77065,5.4865 -15.77065,7.0268 0,0.6972 -1.6796,1.2722 -3.73245,1.2778 -2.05286,0.01 -5.87065,1.1254 -8.48398,2.4883 -2.61334,1.363 -5.78593,2.4781 -7.0502,2.4781 -1.26428,0 -2.29868,0.6511 -2.29868,1.4469 0,0.7957 -3.01857,1.9295 -6.70793,2.5194 -3.68938,0.59 -7.9817,1.7122 -9.5385,2.4939 -1.55682,0.7817 -7.30953,2.7704 -12.78381,4.4193 -5.47427,1.6489 -10.69971,3.5382 -11.61209,4.1984 -0.91238,0.6602 -5.21388,1.7296 -9.55891,2.3764 -4.34501,0.6469 -8.30815,1.8365 -8.80696,2.6436 -0.49882,0.8071 -2.68506,1.4674 -4.85832,1.4674 -2.17325,0 -4.3583,0.6584 -4.85564,1.4632 -0.49735,0.8047 -5.759,1.983 -11.69255,2.6184 -5.93355,0.6355 -11.21342,1.8433 -11.73306,2.6841 -0.51963,0.8408 -3.4694,1.5287 -6.55503,1.5287 -3.08563,0 -6.03032,0.6797 -6.54376,1.5104 -0.51344,0.8308 -7.287,2.0398 -15.05238,2.6866 -7.76535,0.6469 -14.47435,1.7513 -14.9089,2.4544 -0.43452,0.7031 -9.19472,1.7606 -19.46709,2.35 -10.27237,0.5894 -21.66301,1.7854 -25.31252,2.6577 -8.55014,2.0438 -53.32356,2.7326 -90.40844,1.3911 z m 76.30804,-110.0758 c 8.6676,-0.5176 17.25225,-1.6205 19.07701,-2.4508 1.82476,-0.8303 10.59499,-1.9986 19.48941,-2.5962 8.89439,-0.5977 16.58999,-1.7636 17.10131,-2.5909 0.51131,-0.8273 4.24483,-1.5042 8.29669,-1.5042 4.05186,0 7.36701,-0.6596 7.36701,-1.4657 0,-0.806 5.03882,-1.9992 11.19738,-2.6515 6.15855,-0.6522 11.94386,-1.7647 12.85624,-2.4723 0.91238,-0.7075 5.18731,-1.7969 9.49984,-2.4209 4.31253,-0.624 8.27567,-1.8379 8.80698,-2.6976 0.5313,-0.8596 3.11736,-1.563 5.7468,-1.563 2.62945,0 5.18894,-0.6604 5.68776,-1.4675 0.4988,-0.8071 4.27532,-1.9725 8.39224,-2.5899 4.11693,-0.6174 7.48532,-1.8233 7.48532,-2.6797 0,-0.8565 1.86623,-1.5573 4.14718,-1.5573 2.28094,0 4.14717,-0.7465 4.14717,-1.6588 0,-0.9124 1.56679,-1.6589 3.48176,-1.6589 1.91496,0 6.02067,-1.1197 9.12379,-2.4883 5.98389,-2.6391 15.89496,-6.8143 21.4013,-9.0157 1.82476,-0.7296 8.21459,-3.665 14.19963,-6.5233 5.98504,-2.8583 11.77035,-5.1969 12.85625,-5.1969 1.08589,0 1.97435,-0.7465 1.97435,-1.6589 0,-0.9123 1.11974,-1.6588 2.48831,-1.6588 1.36857,0 2.4883,-0.6634 2.4883,-1.4743 0,-0.8108 2.61273,-1.9644 5.80605,-2.5635 3.19333,-0.599 5.81461,-1.6152 5.82508,-2.2582 0.01,-0.6429 2.99643,-2.5954 6.63548,-4.3388 3.63904,-1.7435 6.61645,-3.7154 6.61645,-4.3821 0,-0.6667 1.69446,-1.6374 3.76547,-2.1572 2.071,-0.5198 5.26398,-2.2804 7.09547,-3.9123 1.83151,-1.632 6.10899,-4.3912 9.50549,-6.1315 3.3965,-1.7403 6.1755,-3.7932 6.1755,-4.5619 0,-0.7687 1.5164,-1.3976 3.3698,-1.3976 1.8534,0 3.7995,-1.1198 4.3247,-2.4883 0.5251,-1.3686 1.5996,-2.4884 2.3877,-2.4884 2.2035,0 17.0097,-10.4159 19.4542,-13.6856 1.1936,-1.5967 3.2106,-2.9031 4.4821,-2.9031 1.2715,0 2.9088,-1.0022 3.6384,-2.2271 0.7296,-1.225 3.5657,-3.6511 6.3025,-5.3914 7.714,-4.9052 10.5681,-7.3119 22.9323,-19.3381 6.3318,-6.1586 12.0999,-11.1974 12.8181,-11.1974 1.7051,0 31.4345,-29.7294 31.4345,-31.4345 0,-0.7182 5.0388,-6.4863 11.1974,-12.8181 12.0262,-12.3642 14.4329,-15.2183 19.3381,-22.9323 1.7403,-2.7368 4.1664,-5.5729 5.3914,-6.3025 1.2249,-0.7296 2.2271,-2.3669 2.2271,-3.6384 0,-1.2715 1.3064,-3.2885 2.9031,-4.4821 3.2697,-2.4445 13.6856,-17.2507 13.6856,-19.4542 0,-0.7881 1.1198,-1.8626 2.4884,-2.3877 1.3685,-0.5252 2.4883,-2.4713 2.4883,-4.3247 0,-1.8534 0.6289,-3.3698 1.3976,-3.3698 0.7687,0 2.8216,-2.779 4.5619,-6.1755 1.7403,-3.3965 4.4995,-7.67398 6.1315,-9.50549 1.6319,-1.83149 3.3925,-5.02447 3.9123,-7.09547 0.5198,-2.07101 1.4905,-3.76547 2.1572,-3.76547 0.6667,0 2.6386,-2.97741 4.3821,-6.61645 1.7434,-3.63905 3.6959,-6.62502 4.3388,-6.63548 0.643,-0.01 1.6592,-2.63175 2.2582,-5.82508 0.5991,-3.19332 1.7527,-5.80605 2.5635,-5.80605 0.8109,0 1.4743,-1.11973 1.4743,-2.4883 0,-1.36857 0.7465,-2.48831 1.6588,-2.48831 0.9124,0 1.6589,-0.88846 1.6589,-1.97435 0,-1.0859 2.3386,-6.87121 5.1969,-12.85625 2.8583,-5.98504 5.7937,-12.37487 6.5233,-14.19963 2.2014,-5.50634 6.3766,-15.41741 9.0157,-21.4013 1.3686,-3.10312 2.4883,-7.20883 2.4883,-9.12379 0,-1.91497 0.7465,-3.48176 1.6589,-3.48176 0.9123,0 1.6588,-1.86623 1.6588,-4.14717 0,-2.28095 0.7008,-4.14718 1.5573,-4.14718 0.8564,0 2.0623,-3.36839 2.6797,-7.48532 0.6174,-4.11692 1.7828,-7.89344 2.5899,-8.39224 0.8071,-0.49882 1.4675,-3.05831 1.4675,-5.68776 0,-2.62944 0.7034,-5.2155 1.563,-5.7468 0.8597,-0.53131 2.0736,-4.49445 2.6976,-8.80698 0.624,-4.31253 1.7134,-8.58746 2.4209,-9.49984 0.7076,-0.91238 1.8201,-6.69769 2.4723,-12.85624 0.6523,-6.15856 1.8455,-11.19738 2.6515,-11.19738 0.8061,0 1.4657,-3.31515 1.4657,-7.36701 0,-4.05186 0.6769,-7.78538 1.5042,-8.29669 0.8273,-0.51132 1.9932,-8.20692 2.5909,-17.10131 0.5976,-8.89442 1.7659,-17.66465 2.5962,-19.48941 4.6606,-10.24275 4.6606,-120.80802 0,-131.05077 -0.8303,-1.82476 -1.9986,-10.59499 -2.5962,-19.48941 -0.5977,-8.8944 -1.7636,-16.59 -2.5909,-17.10131 -0.8273,-0.51131 -1.5042,-4.24483 -1.5042,-8.29669 0,-4.05186 -0.6596,-7.36701 -1.4657,-7.36701 -0.806,0 -1.9992,-5.03882 -2.6515,-11.19738 -0.6522,-6.15855 -1.7647,-11.94386 -2.4723,-12.85624 -0.7075,-0.91238 -1.7969,-5.18731 -2.4209,-9.49984 -0.624,-4.31253 -1.8379,-8.27567 -2.6976,-8.80698 -0.8596,-0.5313 -1.563,-3.11736 -1.563,-5.74681 0,-2.62944 -0.6604,-5.18893 -1.4675,-5.68775 -0.8071,-0.4988 -1.9725,-4.27532 -2.5899,-8.39224 -0.6174,-4.11694 -1.8233,-7.48532 -2.6797,-7.48532 -0.8565,0 -1.5573,-1.86623 -1.5573,-4.14718 0,-2.28095 -0.7465,-4.14717 -1.6588,-4.14717 -0.9124,0 -1.6589,-1.56679 -1.6589,-3.48176 0,-1.91496 -1.1958,-6.20729 -2.6574,-9.5385 -1.4616,-3.33121 -3.2774,-7.54974 -4.035,-9.3745 -0.7577,-1.82475 -2.6189,-6.3037 -4.1361,-9.95322 -1.5172,-3.64951 -4.9269,-11.15909 -7.5771,-16.68794 -2.6502,-5.52885 -4.8186,-10.94091 -4.8186,-12.02681 0,-1.0859 -0.7465,-1.97435 -1.6589,-1.97435 -0.9123,0 -1.6588,-1.11974 -1.6588,-2.48831 0,-1.36857 -0.6634,-2.4883 -1.4743,-2.4883 -0.8108,0 -1.9644,-2.61273 -2.5635,-5.80605 -0.599,-3.19333 -1.6152,-5.81461 -2.2582,-5.82508 -0.6429,-0.01 -2.5954,-2.99643 -4.3388,-6.63548 -1.7435,-3.63905 -3.7154,-6.61645 -4.3821,-6.61645 -0.6667,0 -1.6374,-1.69446 -2.1572,-3.76547 -0.5198,-2.071 -2.2804,-5.26398 -3.9123,-7.09547 -1.632,-1.83151 -4.3912,-6.10899 -6.1315,-9.50551 -1.7403,-3.39651 -3.7932,-6.17548 -4.5619,-6.17548 -0.7687,0 -1.3976,-1.51641 -1.3976,-3.3698 0,-1.8534 -1.1198,-3.79949 -2.4883,-4.32466 -1.3686,-0.52518 -2.4884,-1.59966 -2.4884,-2.38774 0,-2.20351 -10.4159,-17.00973 -13.6856,-19.45419 -1.5967,-1.19366 -2.9031,-3.21059 -2.9031,-4.48208 0,-1.27151 -1.0022,-2.90878 -2.2271,-3.63841 -1.225,-0.72962 -3.6511,-3.56575 -5.3914,-6.30253 -4.9052,-7.71399 -7.3119,-10.56805 -19.3381,-22.93234 -6.1586,-6.33172 -11.1974,-12.09985 -11.1974,-12.81806 0,-1.70505 -29.7294,-31.43451 -31.4345,-31.43451 -0.7182,0 -6.4863,-5.03882 -12.8181,-11.19738 -12.6069,-12.2622 -16.8208,-15.83576 -21.8416,-18.52283 -1.8258,-0.97714 -4.6261,-3.08311 -6.223,-4.67996 -1.5968,-1.59683 -4.1779,-3.65457 -5.7358,-4.57276 -1.5578,-0.91817 -6.9961,-4.84199 -12.085,-8.7196 -5.0889,-3.87761 -9.951,-7.0502 -10.8048,-7.0502 -0.8537,0 -1.9819,-1.11974 -2.507,-2.48831 -0.5252,-1.36856 -2.4713,-2.4883 -4.3247,-2.4883 -1.8534,0 -3.3698,-0.62895 -3.3698,-1.39765 0,-0.7687 -2.779,-2.82156 -6.1755,-4.56189 -3.3965,-1.74034 -7.6338,-4.46207 -9.41621,-6.0483 -1.7824,-1.58622 -4.75392,-3.36432 -6.6034,-3.95131 -1.84945,-0.58701 -4.38389,-2.08852 -5.63209,-3.33672 -1.2482,-1.2482 -3.33586,-2.26945 -4.63927,-2.26945 -1.30339,0 -2.36981,-0.74649 -2.36981,-1.65887 0,-0.91238 -1.11974,-1.65887 -2.48831,-1.65887 -1.36856,0 -2.4883,-0.71267 -2.4883,-1.58371 0,-0.87102 -2.61272,-2.07385 -5.80605,-2.67292 -3.19332,-0.59907 -5.80605,-1.75263 -5.80605,-2.56347 0,-0.81084 -1.11973,-1.47425 -2.4883,-1.47425 -1.36857,0 -2.48831,-0.74649 -2.48831,-1.65887 0,-0.91238 -0.88846,-1.65887 -1.97435,-1.65887 -1.0859,0 -6.49796,-2.16835 -12.02681,-4.81854 -16.05442,-7.69553 -21.98395,-10.1113 -24.81828,-10.1113 -1.45878,0 -2.65232,-0.74649 -2.65232,-1.65887 0,-0.91238 -1.0344,-1.65887 -2.29868,-1.65887 -1.26427,0 -4.43686,-1.11514 -7.0502,-2.47808 -2.61333,-1.36295 -6.43113,-2.48269 -8.48398,-2.48831 -2.05285,-0.006 -3.73246,-0.75671 -3.73246,-1.66909 0,-0.91238 -1.40765,-1.65887 -3.12811,-1.65887 -1.72047,0 -5.2663,-1.11514 -7.87964,-2.47809 -2.61333,-1.36294 -6.38706,-2.48268 -8.38607,-2.4883 -1.999,-0.006 -4.09592,-0.75671 -4.6598,-1.66909 -0.56388,-0.91238 -3.1766,-1.65887 -5.80605,-1.65887 -2.62944,0 -5.2155,-0.70336 -5.7468,-1.56303 -0.53131,-0.85966 -4.49445,-2.07357 -8.80698,-2.69756 -4.31253,-0.624 -8.58746,-1.71343 -9.49984,-2.42096 -0.91238,-0.70753 -6.69769,-1.82006 -12.85624,-2.4723 -6.15856,-0.65224 -11.19738,-1.84541 -11.19738,-2.6515 0,-0.80609 -3.31515,-1.46562 -7.36701,-1.46562 -4.05186,0 -7.78538,-0.6769 -8.29669,-1.50423 -0.51132,-0.82733 -8.20692,-1.99322 -17.10131,-2.59087 -8.89442,-0.59765 -17.66465,-1.76596 -19.48941,-2.59626 -10.24275,-4.6606 -120.80802,-4.6606 -131.05077,0 -1.82476,0.8303 -10.59499,1.99861 -19.48941,2.59626 -8.8944,0.59765 -16.59,1.76354 -17.10131,2.59087 -0.51131,0.82733 -4.24483,1.50423 -8.29669,1.50423 -4.05186,0 -7.36701,0.65953 -7.36701,1.46562 0,0.80609 -5.03882,1.99926 -11.19738,2.6515 -6.15855,0.65224 -11.94386,1.76477 -12.85624,2.4723 -0.91238,0.70753 -5.18731,1.79696 -9.49984,2.42096 -4.31253,0.62399 -8.27567,1.8379 -8.80698,2.69756 -0.5313,0.85967 -3.11736,1.56303 -5.74681,1.56303 -2.62944,0 -5.24216,0.74649 -5.80604,1.65887 -0.56389,0.91238 -2.6608,1.66347 -4.6598,1.66909 -1.99901,0.006 -5.77274,1.12536 -8.38607,2.4883 -2.61334,1.36295 -6.15917,2.47809 -7.87964,2.47809 -1.72046,0 -3.12811,0.74649 -3.12811,1.65887 0,0.91238 -1.67961,1.66347 -3.73246,1.66909 -2.05286,0.006 -5.87065,1.12536 -8.48398,2.48831 -2.61334,1.36294 -5.78593,2.47808 -7.0502,2.47808 -1.26428,0 -2.29868,0.74649 -2.29868,1.65887 0,0.91238 -1.19354,1.65887 -2.65232,1.65887 -2.83433,0 -8.76386,2.41577 -24.81828,10.1113 -5.52885,2.65019 -10.94091,4.81854 -12.02681,4.81854 -1.0859,0 -1.97435,0.74649 -1.97435,1.65887 0,0.91238 -1.11974,1.65887 -2.48831,1.65887 -1.36857,0 -2.4883,0.66341 -2.4883,1.47425 0,0.81084 -2.61273,1.9644 -5.80605,2.56347 -3.19333,0.59907 -5.80605,1.8019 -5.80605,2.67292 0,0.87104 -1.11974,1.58371 -2.4883,1.58371 -1.36857,0 -2.48831,0.74649 -2.48831,1.65887 0,0.91238 -1.06642,1.65887 -2.36981,1.65887 -1.30341,0 -3.39107,1.02125 -4.63927,2.26945 -1.2482,1.2482 -3.78264,2.74971 -5.63209,3.33672 -1.84948,0.58699 -4.821,2.36509 -6.6034,3.95131 -1.78241,1.58623 -6.01971,4.30796 -9.41623,6.0483 -3.39651,1.74033 -6.17548,3.79319 -6.17548,4.56189 0,0.7687 -1.51641,1.39765 -3.3698,1.39765 -1.8534,0 -3.79949,1.11974 -4.32466,2.4883 -0.52518,1.36857 -1.65336,2.48831 -2.50708,2.48831 -0.85372,0 -5.71587,3.17259 -10.80475,7.0502 -5.0889,3.87761 -10.52716,7.80143 -12.08501,8.7196 -1.55786,0.91819 -4.13898,2.97593 -5.73583,4.57276 -1.59684,1.59685 -4.39716,3.70282 -6.22295,4.67996 -5.02084,2.68707 -9.2347,6.26063 -21.84167,18.52283 -6.33172,6.15856 -12.09985,11.19738 -12.81806,11.19738 -1.70505,0 -31.43451,29.72946 -31.43451,31.43451 0,0.71821 -5.03882,6.48634 -11.19738,12.81806 -12.2622,12.60697 -15.83576,16.82083 -18.52283,21.84167 -0.97714,1.82579 -3.08311,4.62611 -4.67996,6.22295 -1.59683,1.59685 -3.65457,4.17797 -4.57276,5.73583 -0.91817,1.55785 -4.84199,6.99611 -8.7196,12.08501 -3.87761,5.08888 -7.0502,9.95103 -7.0502,10.80475 0,0.85372 -1.11974,1.9819 -2.48831,2.50708 -1.36856,0.52517 -2.4883,2.47126 -2.4883,4.32466 0,1.85339 -0.62895,3.3698 -1.39765,3.3698 -0.7687,0 -2.82156,2.77897 -4.56189,6.17548 -1.74034,3.39652 -4.46207,7.63382 -6.0483,9.41623 -1.58622,1.7824 -3.36432,4.75392 -3.95131,6.6034 -0.58701,1.84945 -2.08852,4.38389 -3.33672,5.63209 -1.2482,1.2482 -2.26945,3.33586 -2.26945,4.63927 0,1.30339 -0.74649,2.36981 -1.65887,2.36981 -0.91238,0 -1.65887,1.11974 -1.65887,2.48831 0,1.36856 -0.71267,2.4883 -1.58371,2.4883 -0.87102,0 -2.07385,2.61272 -2.67292,5.80605 -0.59907,3.19332 -1.75263,5.80605 -2.56347,5.80605 -0.81084,0 -1.47425,1.11973 -1.47425,2.4883 0,1.36857 -0.74649,2.48831 -1.65887,2.48831 -0.91238,0 -1.65887,0.88845 -1.65887,1.97435 0,1.0859 -2.16835,6.49796 -4.81854,12.02681 -7.69553,16.05442 -10.1113,21.98395 -10.1113,24.81828 0,1.45878 -0.74649,2.65232 -1.65887,2.65232 -0.91238,0 -1.65887,1.0344 -1.65887,2.29868 0,1.26427 -1.11514,4.43686 -2.47808,7.0502 -1.36295,2.61333 -2.48269,6.43112 -2.48831,8.48398 -0.006,2.05285 -0.75671,3.73246 -1.66909,3.73246 -0.91238,0 -1.65887,1.40765 -1.65887,3.12811 0,1.72047 -1.11514,5.2663 -2.47809,7.87964 -1.36294,2.61333 -2.48268,6.38706 -2.4883,8.38607 -0.006,1.999 -0.75671,4.09591 -1.66909,4.6598 -0.91238,0.56388 -1.65887,3.1766 -1.65887,5.80604 0,2.62945 -0.70336,5.21551 -1.56303,5.74681 -0.85966,0.53131 -2.07357,4.49445 -2.69756,8.80698 -0.624,4.31253 -1.71343,8.58746 -2.42096,9.49984 -0.70753,0.91238 -1.82006,6.69769 -2.4723,12.85624 -0.65224,6.15856 -1.84541,11.19738 -2.6515,11.19738 -0.80609,0 -1.46562,3.31515 -1.46562,7.36701 0,4.05186 -0.6769,7.78538 -1.50423,8.29669 -0.82733,0.51131 -1.99322,8.20691 -2.59087,17.10131 -0.59765,8.89442 -1.76596,17.66465 -2.59626,19.48941 -4.6606,10.24275 -4.6606,120.80802 0,131.05077 0.8303,1.82476 1.99861,10.59499 2.59626,19.48941 0.59765,8.89439 1.76354,16.58999 2.59087,17.10131 0.82733,0.51131 1.50423,4.24483 1.50423,8.29669 0,4.05186 0.65953,7.36701 1.46562,7.36701 0.80609,0 1.99926,5.03882 2.6515,11.19738 0.65224,6.15855 1.76477,11.94386 2.4723,12.85624 0.70753,0.91238 1.79696,5.18731 2.42096,9.49984 0.62399,4.31253 1.8379,8.27567 2.69756,8.80698 0.85967,0.5313 1.56303,3.11736 1.56303,5.7468 0,2.62945 0.74649,5.24217 1.65887,5.80605 0.91238,0.56388 1.66347,2.6608 1.66909,4.6598 0.006,1.99901 1.12536,5.77274 2.4883,8.38607 1.36295,2.61334 2.47809,6.15917 2.47809,7.87964 0,1.72046 0.74649,3.12811 1.65887,3.12811 0.91238,0 1.66347,1.67961 1.66909,3.73246 0.006,2.05285 1.12536,5.87065 2.48831,8.48398 1.36294,2.61334 2.47808,5.78593 2.47808,7.0502 0,1.26428 0.74649,2.29868 1.65887,2.29868 0.91238,0 1.65887,1.19354 1.65887,2.65232 0,2.83433 2.41577,8.76386 10.1113,24.81828 2.65019,5.52885 4.81854,10.94091 4.81854,12.02681 0,1.08589 0.74649,1.97435 1.65887,1.97435 0.91238,0 1.65887,1.11974 1.65887,2.48831 0,1.36857 0.66341,2.4883 1.47425,2.4883 0.81084,0 1.9644,2.61273 2.56347,5.80605 0.59907,3.19333 1.8019,5.80605 2.67292,5.80605 0.87104,0 1.58371,1.11974 1.58371,2.4883 0,1.36857 0.74649,2.48831 1.65887,2.48831 0.91238,0 1.65887,1.06642 1.65887,2.36981 0,1.30341 1.02125,3.39107 2.26945,4.63927 1.2482,1.2482 2.74971,3.78264 3.33672,5.63209 0.58699,1.84948 2.36509,4.821 3.95131,6.6034 1.58623,1.78241 4.30796,6.01971 6.0483,9.41621 1.74033,3.3965 3.79319,6.1755 4.56189,6.1755 0.7687,0 1.39765,1.5164 1.39765,3.3698 0,1.8534 1.11974,3.7995 2.4883,4.3247 1.36857,0.5251 2.48831,1.6533 2.48831,2.507 0,0.8538 3.17259,5.7159 7.0502,10.8048 3.87761,5.0889 7.80143,10.5272 8.7196,12.085 0.91819,1.5579 2.97593,4.139 4.57276,5.7358 1.59685,1.5969 3.70282,4.3972 4.67996,6.223 2.68707,5.0208 6.26063,9.2347 18.52283,21.8416 6.15856,6.3318 11.19738,12.0999 11.19738,12.8181 0,1.7051 29.72946,31.4345 31.43451,31.4345 0.71821,0 6.48634,5.0388 12.81806,11.1974 12.36429,12.0262 15.21835,14.4329 22.93234,19.3381 2.73678,1.7403 5.57291,4.1664 6.30253,5.3914 0.72963,1.2249 2.3669,2.2271 3.63841,2.2271 1.27149,0 3.28842,1.3064 4.48208,2.9031 2.44446,3.2697 17.25068,13.6856 19.45419,13.6856 0.78808,0 1.86256,1.1198 2.38774,2.4884 0.52517,1.3685 2.47126,2.4883 4.32466,2.4883 1.85339,0 3.3698,0.6289 3.3698,1.3976 0,0.7687 2.77897,2.8216 6.17548,4.5619 3.39652,1.7403 7.674,4.4995 9.50551,6.1315 1.83149,1.6319 5.02447,3.3925 7.09547,3.9123 2.07101,0.5198 3.76547,1.4905 3.76547,2.1572 0,0.6667 2.9774,2.6386 6.61645,4.3821 3.63905,1.7434 6.62502,3.6959 6.63548,4.3388 0.01,0.643 2.63175,1.6592 5.82508,2.2582 3.19332,0.5991 5.80605,1.7527 5.80605,2.5635 0,0.8109 1.11973,1.4743 2.4883,1.4743 1.36857,0 2.48831,0.7465 2.48831,1.6588 0,0.9124 0.88845,1.6589 1.97435,1.6589 1.0859,0 6.87121,2.3386 12.85625,5.1969 5.98504,2.8583 12.37487,5.7937 14.19963,6.5233 6.68493,2.6726 15.07847,6.1997 20.98659,8.8189 3.33121,1.4768 7.62354,2.6851 9.5385,2.6851 1.91497,0 3.48176,0.7465 3.48176,1.6589 0,0.9123 1.86622,1.6588 4.14717,1.6588 2.28095,0 4.14718,0.7008 4.14718,1.5573 0,0.8564 3.36838,2.0623 7.48532,2.6797 4.11692,0.6174 7.89344,1.7828 8.39224,2.5899 0.49882,0.8071 3.05831,1.4675 5.68775,1.4675 2.62945,0 5.21551,0.7034 5.74681,1.563 0.53131,0.8597 4.49445,2.0736 8.80698,2.6976 4.31253,0.624 8.58746,1.7134 9.49984,2.4209 0.91238,0.7076 6.69769,1.8201 12.85624,2.4723 6.15856,0.6523 11.19738,1.8455 11.19738,2.6515 0,0.8061 3.20991,1.4657 7.13314,1.4657 3.92323,0 7.84231,0.7027 8.70907,1.5615 0.86676,0.8589 9.25035,2.0869 18.63018,2.729 9.37983,0.642 17.44868,1.8056 17.93075,2.5856 0.48208,0.78 7.73752,1.4296 16.12317,1.4436 8.38566,0.013 16.36639,0.7668 17.73496,1.6728 2.44723,1.6203 44.22669,1.1645 77.96691,-0.8504 z"
         id="path1490" />
      <path
         style="opacity:0.914;fill:#008080;stroke-width:5.43944;stroke-linecap:round;stroke-linejoin:round"
         d="m 563.18654,1036.1492 c 0,-0.8108 -2.61273,-1.9644 -5.80605,-2.5634 -3.19333,-0.5991 -5.80605,-1.8019 -5.80605,-2.6729 0,-0.8711 -0.80777,-1.5838 -1.79505,-1.5838 -2.52154,0 -16.39188,-13.6582 -16.42513,-16.1739 -0.0151,-1.1405 -0.77389,-2.0736 -1.68626,-2.0736 -0.91238,0 -1.65887,-1.4308 -1.65887,-3.1795 0,-1.7488 -0.93312,-3.4923 -2.07359,-3.8746 -2.95674,-0.9912 -2.95674,-41.3132 0,-42.29792 1.14047,-0.37984 2.07359,-1.74814 2.07359,-3.04066 0,-1.29255 0.69618,-2.35008 1.54708,-2.35008 0.85089,0 2.04682,-1.57455 2.65762,-3.499 0.6108,-1.92444 57.76772,-60.15521 127.01538,-129.4017 81.83207,-81.83069 125.90484,-127.05042 125.90484,-129.18143 0,-2.13085 -44.07814,-47.36206 -125.90374,-129.19736 C 591.98326,495.8041 534.82633,437.5646 534.21493,435.63824 c -0.6114,-1.92636 -1.80783,-3.50247 -2.65872,-3.50247 -0.8509,0 -1.54708,-1.05753 -1.54708,-2.35007 0,-1.29254 -0.93312,-2.66083 -2.07359,-3.04066 -2.95674,-0.98473 -2.95674,-41.30674 0,-42.29789 1.14047,-0.38231 2.07359,-2.12588 2.07359,-3.87461 0,-1.74873 0.74649,-3.1795 1.65887,-3.1795 0.91237,0 1.6712,-0.93312 1.68626,-2.07359 0.0333,-2.51572 13.90359,-16.17399 16.42513,-16.17399 0.98728,0 1.79505,-0.71266 1.79505,-1.5837 0,-0.87103 2.61272,-2.07385 5.80605,-2.67292 3.19332,-0.59907 5.80605,-1.75264 5.80605,-2.56348 0,-1.90702 29.37878,-1.93552 30.55668,-0.0296 0.49105,0.79453 3.10825,1.88769 5.81601,2.42924 2.70775,0.54156 6.57221,2.31758 8.58767,3.94673 3.13163,2.53137 25.9801,23.95591 30.31088,28.4219 0.79834,0.82325 18.99407,19.03938 40.43497,40.48028 21.4409,21.4409 39.7226,39.7373 40.62599,40.65867 0.90339,0.92136 7.61446,7.64714 14.91349,14.94617 l 14.92984,14.92983 14.92983,14.92984 c 7.29903,7.29903 14.11812,14.12067 15.15354,15.15919 1.03541,1.03854 7.8545,7.83209 15.15353,15.0968 7.29903,7.26471 13.92288,13.87383 14.71967,14.68694 1.89043,1.92917 49.10516,49.14389 51.03432,51.03433 0.81312,0.79678 7.42224,7.42064 14.68695,14.71967 7.2647,7.29903 13.98434,14.01745 14.93255,14.92983 9.93926,9.56381 23.05702,24.9057 25.70818,30.06701 1.81602,3.53549 4.04738,6.95576 4.95858,7.60065 2.16463,1.53195 2.16463,34.27706 0,35.80901 -0.9112,0.64489 -3.14256,4.06516 -4.95858,7.60065 -2.65116,5.16131 -15.76892,20.5032 -25.70818,30.06701 -0.94821,0.91238 -7.66785,7.6308 -14.93255,14.92983 -7.26471,7.29903 -13.98314,14.01746 -14.92984,14.92984 -0.9467,0.91237 -7.66512,7.6308 -14.92983,14.92983 -7.26471,7.29903 -13.87906,13.91766 -14.69856,14.70804 -1.93787,1.86907 -19.3056,19.2368 -21.17467,21.17467 -0.79038,0.8195 -7.40901,7.43385 -14.70804,14.69856 -7.29903,7.26471 -14.01746,13.98313 -14.92983,14.92983 -0.91238,0.9467 -7.63081,7.66513 -14.92984,14.92984 -7.29903,7.2647 -14.01745,13.9576 -14.92983,14.8731 -2.15881,2.16617 -27.56434,27.5717 -30.31274,30.31272 -1.16156,1.15846 -8.05578,8.0782 -15.32049,15.37723 -7.2647,7.29903 -13.77925,13.8283 -14.47678,14.5095 -2.20934,2.15764 -49.72996,49.69796 -51.24449,51.2657 -4.19789,4.3455 -27.15482,25.8759 -30.30807,28.4247 -2.01546,1.6292 -5.87992,3.4052 -8.58767,3.9467 -2.70776,0.5416 -5.32496,1.6348 -5.81601,2.4293 -1.1779,1.9059 -30.55668,1.8774 -30.55668,-0.03 z"
         id="path1492" />
    </g>
  </g>
</svg>
