<?xml version="1.0" encoding="UTF-8"?>
<!-- Created with Inkscape (http://www.inkscape.org/) -->
<svg width="210mm" height="297mm" version="1.1" viewBox="0 0 210 297" xmlns="http://www.w3.org/2000/svg">
 <path d="m42.019 260.98c-2.3971-1.216-5.0101-3.8482-6.268-6.3137-1.246-2.4423-1.5377-6.7384-0.66208-9.7504 1.1237-3.8653-1.5225-1.4367 63.517-58.295 40.915-35.768 42.748-37.401 42.748-38.072 0-0.1694-2.5433-2.6063-5.6518-5.4154-5.1815-4.6824-45.755-40.297-50.258-44.115-9.273-7.8632-42.183-37-45.474-40.26-3.759-3.7237-4.2424-4.375-4.8825-6.5777-1.5171-5.2205-0.03414-10.367 4.0439-14.033 3.4792-3.1281 9.4467-4.0353 13.654-2.0759 2.9903 1.3925 2.8071 1.2395 29.378 24.531 7.7995 6.837 15.489 13.561 17.087 14.942 1.5983 1.3809 8.0681 7.0425 14.377 12.581 6.3093 5.5388 12.233 10.718 13.164 11.509 0.9306 0.79126 7.686 6.7043 15.012 13.14 33.882 29.765 31.062 27.11 32.679 30.767 1.8426 4.1664 1.135 9.1301-1.8668 13.095-0.80402 1.0619-3.8664 4.0523-6.8054 6.6454-8.0493 7.1018-37.301 32.75-41.093 36.031-3.0118 2.6058-23.911 20.878-54.063 47.267-16.59 14.52-17.395 15.055-23.018 15.315-3.136 0.14536-3.7114 0.0516-5.6177-0.91546z" fill="#008080" opacity=".914" stroke-linecap="round" stroke-linejoin="round" stroke-width="1.3478"/>
</svg>
